<svg width="225" height="195" viewBox="0 0 225 195" fill="none" xmlns="http://www.w3.org/2000/svg">
<rect y="20" width="214" height="175" rx="10" fill="white"/>
<path d="M138.009 70.4306C138.016 70.4217 138.019 70.4094 138.026 70.3993C140.884 67.1899 140.606 62.2729 137.403 59.407L137.394 59.3947L137.383 59.3858C137.633 59.0246 137.854 58.6441 138.044 58.2478C138.142 58.0596 138.229 57.8656 138.303 57.6671C138.673 56.6895 138.87 55.6546 138.883 54.6094C138.878 49.9857 135.131 46.2386 130.507 46.2337C130.306 46.2337 130.093 46.246 129.88 46.2583C129.684 46.2728 129.501 46.2974 129.335 46.3219C128.873 46.3827 128.417 46.4836 127.972 46.6234L127.958 46.6056C127.958 46.6056 127.947 46.5989 127.942 46.5933C125.387 43.7306 121.124 43.1648 117.911 45.2621C117.879 45.28 117.843 45.2822 117.812 45.3034C117.781 45.3247 117.738 45.3615 117.7 45.3883C117.69 45.395 117.679 45.3995 117.67 45.4062C117.292 45.1389 116.889 44.9082 116.467 44.7171C114.422 43.7752 112.07 43.7608 110.014 44.6777C107.957 45.5947 106.396 47.3538 105.73 49.5047C102.114 45.9363 97.2246 43.9558 92.1445 44.0015C87.0643 44.0472 82.2118 46.1153 78.6605 49.7481C71.1132 57.4276 71.1132 69.7388 78.6605 77.4182L104.765 103.823C105.182 104.233 105.783 104.396 106.35 104.252C106.917 104.109 107.368 103.68 107.54 103.122C107.551 103.129 107.56 103.139 107.571 103.148C109.256 104.445 111.531 104.671 113.438 103.73C115.345 102.79 116.551 100.847 116.548 98.7216C120.863 98.716 124.36 95.2193 124.365 90.9042C128.68 90.8987 132.177 87.402 132.182 83.0869V83.0076C132.208 83.0076 132.234 82.9964 132.26 82.9931C132.285 82.9897 132.318 82.9931 132.349 82.9853C132.38 82.9774 132.386 82.9685 132.407 82.964C136.146 82.31 138.877 79.0659 138.883 75.2695C138.883 75.0152 138.87 74.761 138.844 74.5079C138.763 73.6855 138.554 72.8809 138.223 72.1236C138.028 71.6983 137.806 71.2861 137.559 70.8896C137.677 70.7779 137.782 70.6562 137.894 70.5378C137.93 70.4998 137.974 70.4675 138.009 70.4306ZM105.38 101.269L80.253 75.848C73.5614 69.0401 73.5614 58.1252 80.253 51.3172C83.4304 48.0659 87.7846 46.2329 92.3308 46.2329C96.8769 46.2329 101.231 48.0659 104.409 51.3172L105.382 52.3044V101.269H105.38ZM136.183 73.036C136.416 73.5753 136.564 74.1476 136.622 74.7324V74.7469C136.64 74.9205 136.649 75.095 136.649 75.2695C136.643 76.7576 136.045 78.182 134.988 79.2293C133.931 80.2765 132.501 80.8608 131.013 80.8534C128.752 80.8388 126.727 79.4518 125.896 77.3489C127.399 77.0257 128.744 76.1933 129.704 74.9926C130.09 74.5109 130.012 73.8079 129.53 73.4224C129.048 73.0369 128.345 73.1149 127.96 73.5966C126.419 75.5223 123.609 75.8347 121.683 74.2946C121.201 73.9091 120.497 73.9874 120.112 74.4694C119.726 74.9514 119.805 75.6546 120.287 76.0401C121.232 76.7925 122.364 77.2732 123.561 77.4305C124.396 80.3884 126.898 82.5745 129.941 83.0042C129.941 83.0344 129.949 83.0612 129.949 83.0913C129.945 86.1737 127.447 88.6715 124.365 88.6752C124.239 88.6752 124.142 88.6517 124.019 88.645C123.348 86.4601 121.763 84.6729 119.675 83.7447C120.545 82.5898 121.016 81.1827 121.015 79.7366C121.015 79.1198 120.515 78.6198 119.898 78.6198C119.281 78.6198 118.781 79.1198 118.781 79.7366C118.781 82.2037 116.781 84.2036 114.314 84.2036C113.697 84.2036 113.197 84.7036 113.197 85.3204C113.197 85.9372 113.697 86.4372 114.314 86.4372C115.527 86.4364 116.716 86.1043 117.754 85.4768C120.534 86.087 122.407 88.6948 122.097 91.5242C121.787 94.3535 119.394 96.4941 116.548 96.488C116.225 96.484 115.903 96.4533 115.585 96.3965C114.827 96.267 114.105 95.9814 113.463 95.5578C112.949 95.2164 112.256 95.3561 111.915 95.8699C111.573 96.3837 111.713 97.0769 112.227 97.4183C112.864 97.8426 113.561 98.1703 114.294 98.391C114.304 98.5027 114.316 98.6077 114.316 98.726C114.319 100.004 113.594 101.172 112.446 101.735C111.299 102.298 109.931 102.157 108.923 101.373C108.089 100.748 107.603 99.7633 107.614 98.7216V51.8175C107.613 49.9118 108.584 48.1372 110.189 47.1106C111.795 46.0839 113.813 45.947 115.543 46.7474C115.699 46.8238 115.851 46.908 115.998 46.9998C115.112 48.1193 114.551 49.4611 114.377 50.8783C113.584 51.0502 112.857 51.4423 112.277 52.0096C111.987 52.29 111.871 52.7052 111.973 53.0957C112.075 53.4861 112.38 53.791 112.77 53.8932C113.161 53.9954 113.576 53.879 113.856 53.5887C114.74 52.7446 116.131 52.7446 117.015 53.5887C117.295 53.879 117.71 53.9954 118.101 53.8932C118.491 53.791 118.796 53.4861 118.898 53.0957C119 52.7052 118.884 52.29 118.594 52.0096C118.049 51.4778 117.373 51.1008 116.634 50.9174C116.837 49.665 117.463 48.5198 118.407 47.6721L118.419 47.6643C119.436 46.7429 120.759 46.2329 122.132 46.2337C125.212 46.2429 127.706 48.7375 127.715 51.8175C127.715 52.4343 128.215 52.9343 128.832 52.9343C129.449 52.9343 129.949 52.4343 129.949 51.8175C129.947 50.7111 129.71 49.6178 129.253 48.6102C129.383 48.5845 129.51 48.551 129.643 48.5342C129.776 48.5175 129.902 48.4951 130.027 48.4873C130.185 48.4773 130.35 48.4672 130.507 48.4672C133.898 48.4715 136.645 51.219 136.649 54.6094C136.637 55.398 136.486 56.1782 136.203 56.9144C136.153 57.0395 136.096 57.1618 136.032 57.2807C135.884 57.5847 135.71 57.8754 135.512 58.1496C133.293 57.0941 130.705 57.1584 128.542 58.3227C127.634 57.7221 126.57 57.4018 125.482 57.4013C124.865 57.4013 124.365 57.9013 124.365 58.5181C124.365 59.1349 124.865 59.6349 125.482 59.6349C127.332 59.6349 128.832 61.1348 128.832 62.9851C128.832 63.6019 129.332 64.1019 129.949 64.1019C130.566 64.1019 131.066 63.6019 131.066 62.9851C131.063 61.9372 130.762 60.9117 130.199 60.028C132.117 59.3203 134.267 59.6936 135.834 61.0062C136.985 61.9964 137.681 63.4146 137.759 64.9309C137.837 66.4472 137.291 67.9293 136.247 69.0324C136.094 69.1952 135.931 69.3488 135.759 69.4925C135.68 69.5584 135.598 69.6221 135.515 69.6846C134.809 70.2167 133.986 70.5734 133.115 70.7254C132.543 70.8222 132.14 71.3408 132.188 71.919C132.236 72.4972 132.719 72.9423 133.299 72.9433C133.361 72.9436 133.423 72.9384 133.485 72.9277C134.256 72.7917 135.002 72.5398 135.698 72.1806C135.907 72.529 136.122 72.9098 136.183 73.036Z" fill="#307BC4"/>
<path d="M118.782 61.8684C114.467 61.8739 110.97 65.3706 110.965 69.6858C110.965 70.3025 111.465 70.8025 112.082 70.8025C112.698 70.8025 113.198 70.3025 113.198 69.6858C113.202 66.6034 115.7 64.1056 118.782 64.1019C119.399 64.1019 119.899 63.6019 119.899 62.9852C119.899 62.3684 119.399 61.8684 118.782 61.8684Z" fill="#307BC4"/>
<path d="M92.3273 48.4672C88.3741 48.4621 84.5871 50.0579 81.8298 52.8907C79.1729 55.5796 77.6171 59.1645 77.4677 62.9416C77.4559 63.238 77.5626 63.527 77.7641 63.7447C77.9657 63.9623 78.2455 64.0909 78.542 64.1019H78.59C79.1889 64.1024 79.6816 63.6304 79.7068 63.0321C79.8341 59.8101 81.1614 56.7522 83.4278 54.4587C85.7651 52.0555 88.975 50.7 92.3273 50.7008C92.9441 50.7008 93.4441 50.2008 93.4441 49.584C93.4441 48.9672 92.9441 48.4672 92.3273 48.4672Z" fill="#307BC4"/>
<path d="M80.1856 67.1495C80.0882 66.7535 79.7826 66.442 79.3884 66.3371C78.9943 66.2322 78.5743 66.3505 78.2928 66.6457C78.0114 66.941 77.9133 67.3661 78.0369 67.7548C78.1516 68.1621 78.2834 68.5645 78.4323 68.962C78.596 69.3974 79.0124 69.6857 79.4776 69.6857C79.6117 69.6853 79.7447 69.6615 79.8707 69.6154C80.1482 69.5111 80.3728 69.3008 80.4952 69.0308C80.6175 68.7608 80.6275 68.4532 80.5229 68.1758C80.3956 67.8386 80.2839 67.4946 80.1856 67.1495Z" fill="#307BC4"/>
<path d="M42.224 133.68L34.208 121.92L35.456 121.464L36.968 121.2L43.64 131.04L42.224 133.68ZM33.992 138V121.2H36.776V138H33.992ZM42.224 133.68L40.856 131.04L47.48 121.2L49.016 121.464L50.24 121.872L42.224 133.68ZM47.696 138V121.2H50.48V138H47.696ZM59.3009 138.288C58.1329 138.288 57.0929 138.024 56.1809 137.496C55.2849 136.952 54.5729 136.208 54.0449 135.264C53.5329 134.32 53.2769 133.232 53.2769 132C53.2769 130.768 53.5409 129.68 54.0689 128.736C54.5969 127.792 55.3169 127.056 56.2289 126.528C57.1569 125.984 58.2129 125.712 59.3969 125.712C60.4689 125.712 61.4289 125.992 62.2769 126.552C63.1409 127.096 63.8289 127.888 64.3409 128.928C64.8529 129.968 65.1089 131.208 65.1089 132.648H62.3969C62.3969 131.608 62.2689 130.752 62.0129 130.08C61.7729 129.408 61.4209 128.912 60.9569 128.592C60.5089 128.256 59.9569 128.088 59.3009 128.088C58.6129 128.088 58.0209 128.24 57.5249 128.544C57.0289 128.848 56.6529 129.296 56.3969 129.888C56.1409 130.464 56.0129 131.192 56.0129 132.072C56.0129 132.856 56.1649 133.528 56.4689 134.088C56.7889 134.648 57.2129 135.08 57.7409 135.384C58.2849 135.672 58.8849 135.816 59.5409 135.816C60.2609 135.816 60.8529 135.656 61.3169 135.336C61.7809 135 62.1409 134.576 62.3969 134.064L64.8689 135.12C64.5329 135.76 64.1009 136.32 63.5729 136.8C63.0609 137.28 62.4449 137.648 61.7249 137.904C61.0209 138.16 60.2129 138.288 59.3009 138.288ZM55.0529 132.648V130.512H63.6929V132.648H55.0529ZM67.1677 138V126H69.6877L69.8557 128.208V138H67.1677ZM75.3037 138V131.856L77.9917 131.136V138H75.3037ZM75.3037 131.856C75.3037 130.896 75.1917 130.16 74.9677 129.648C74.7597 129.12 74.4557 128.752 74.0557 128.544C73.6717 128.336 73.2157 128.232 72.6877 128.232C71.7917 128.216 71.0957 128.512 70.5997 129.12C70.1037 129.728 69.8557 130.6 69.8557 131.736H68.8477C68.8477 130.472 69.0317 129.392 69.3997 128.496C69.7677 127.584 70.2957 126.896 70.9837 126.432C71.6717 125.952 72.4877 125.712 73.4317 125.712C74.8877 125.712 76.0077 126.16 76.7917 127.056C77.5917 127.936 77.9917 129.296 77.9917 131.136L75.3037 131.856ZM85.4906 138.288C84.2266 138.288 83.2586 137.976 82.5866 137.352C81.9306 136.712 81.6026 135.8 81.6026 134.616V122.256H84.2666V134.112C84.2666 134.672 84.3946 135.096 84.6506 135.384C84.9226 135.672 85.3146 135.816 85.8266 135.816C85.9866 135.816 86.1626 135.784 86.3546 135.72C86.5466 135.656 86.7626 135.536 87.0026 135.36L87.9866 137.4C87.5706 137.688 87.1546 137.904 86.7386 138.048C86.3226 138.208 85.9066 138.288 85.4906 138.288ZM79.6106 128.304V126H87.5066V128.304H79.6106ZM97.2444 138L97.1244 135.744V131.832C97.1244 131.016 97.0364 130.336 96.8604 129.792C96.6844 129.248 96.4044 128.832 96.0204 128.544C95.6524 128.256 95.1644 128.112 94.5564 128.112C93.9964 128.112 93.5004 128.232 93.0684 128.472C92.6364 128.712 92.2764 129.08 91.9884 129.576L89.5404 128.712C89.8124 128.184 90.1644 127.688 90.5964 127.224C91.0284 126.76 91.5724 126.392 92.2284 126.12C92.9004 125.848 93.6924 125.712 94.6044 125.712C95.7724 125.712 96.7404 125.928 97.5084 126.36C98.2924 126.792 98.8764 127.432 99.2604 128.28C99.6444 129.128 99.8364 130.176 99.8364 131.424L99.7644 138H97.2444ZM93.8364 138.288C92.3964 138.288 91.2764 137.968 90.4764 137.328C89.6924 136.688 89.3004 135.784 89.3004 134.616C89.3004 133.368 89.7164 132.416 90.5484 131.76C91.3964 131.104 92.5724 130.776 94.0764 130.776H97.2924V132.84H94.9404C93.8684 132.84 93.1164 132.992 92.6844 133.296C92.2524 133.584 92.0364 134 92.0364 134.544C92.0364 135.008 92.2204 135.376 92.5884 135.648C92.9724 135.904 93.5004 136.032 94.1724 136.032C94.7644 136.032 95.2764 135.896 95.7084 135.624C96.1564 135.336 96.5004 134.968 96.7404 134.52C96.9964 134.056 97.1244 133.56 97.1244 133.032H98.1084C98.1084 134.664 97.7564 135.952 97.0524 136.896C96.3644 137.824 95.2924 138.288 93.8364 138.288ZM102.558 138V121.2H105.246V138H102.558ZM125.755 138V121.2H128.539V138H125.755ZM114.523 138V121.2H117.307V138H114.523ZM116.707 130.656V128.112H126.883V130.656H116.707ZM137.371 138.288C136.203 138.288 135.163 138.024 134.251 137.496C133.355 136.952 132.643 136.208 132.115 135.264C131.603 134.32 131.347 133.232 131.347 132C131.347 130.768 131.611 129.68 132.139 128.736C132.667 127.792 133.387 127.056 134.299 126.528C135.227 125.984 136.283 125.712 137.467 125.712C138.539 125.712 139.499 125.992 140.347 126.552C141.211 127.096 141.899 127.888 142.411 128.928C142.923 129.968 143.179 131.208 143.179 132.648H140.467C140.467 131.608 140.339 130.752 140.083 130.08C139.843 129.408 139.491 128.912 139.027 128.592C138.579 128.256 138.027 128.088 137.371 128.088C136.683 128.088 136.091 128.24 135.595 128.544C135.099 128.848 134.723 129.296 134.467 129.888C134.211 130.464 134.083 131.192 134.083 132.072C134.083 132.856 134.235 133.528 134.539 134.088C134.859 134.648 135.283 135.08 135.811 135.384C136.355 135.672 136.955 135.816 137.611 135.816C138.331 135.816 138.923 135.656 139.387 135.336C139.851 135 140.211 134.576 140.467 134.064L142.939 135.12C142.603 135.76 142.171 136.32 141.643 136.8C141.131 137.28 140.515 137.648 139.795 137.904C139.091 138.16 138.283 138.288 137.371 138.288ZM133.123 132.648V130.512H141.763V132.648H133.123ZM152.51 138L152.39 135.744V131.832C152.39 131.016 152.302 130.336 152.126 129.792C151.95 129.248 151.67 128.832 151.286 128.544C150.918 128.256 150.43 128.112 149.822 128.112C149.262 128.112 148.766 128.232 148.334 128.472C147.902 128.712 147.542 129.08 147.254 129.576L144.806 128.712C145.078 128.184 145.43 127.688 145.862 127.224C146.294 126.76 146.838 126.392 147.494 126.12C148.166 125.848 148.958 125.712 149.87 125.712C151.038 125.712 152.006 125.928 152.774 126.36C153.558 126.792 154.142 127.432 154.526 128.28C154.91 129.128 155.102 130.176 155.102 131.424L155.03 138H152.51ZM149.102 138.288C147.662 138.288 146.542 137.968 145.742 137.328C144.958 136.688 144.566 135.784 144.566 134.616C144.566 133.368 144.982 132.416 145.814 131.76C146.662 131.104 147.838 130.776 149.342 130.776H152.558V132.84H150.206C149.134 132.84 148.382 132.992 147.95 133.296C147.518 133.584 147.302 134 147.302 134.544C147.302 135.008 147.486 135.376 147.854 135.648C148.238 135.904 148.766 136.032 149.438 136.032C150.03 136.032 150.542 135.896 150.974 135.624C151.422 135.336 151.766 134.968 152.006 134.52C152.262 134.056 152.39 133.56 152.39 133.032H153.374C153.374 134.664 153.022 135.952 152.318 136.896C151.63 137.824 150.558 138.288 149.102 138.288ZM157.824 138V121.2H160.512V138H157.824ZM168.272 138.288C167.008 138.288 166.04 137.976 165.368 137.352C164.712 136.712 164.384 135.8 164.384 134.616V122.256H167.048V134.112C167.048 134.672 167.176 135.096 167.432 135.384C167.704 135.672 168.096 135.816 168.608 135.816C168.768 135.816 168.944 135.784 169.136 135.72C169.328 135.656 169.544 135.536 169.784 135.36L170.768 137.4C170.352 137.688 169.936 137.904 169.52 138.048C169.104 138.208 168.688 138.288 168.272 138.288ZM162.392 128.304V126H170.288V128.304H162.392ZM172.942 138L172.918 120.984H175.606L175.63 138H172.942ZM181.078 138V131.856L183.766 131.136V138H181.078ZM181.078 131.856C181.078 130.896 180.966 130.16 180.742 129.648C180.518 129.12 180.206 128.752 179.806 128.544C179.422 128.336 178.974 128.232 178.462 128.232C177.55 128.216 176.846 128.512 176.35 129.12C175.87 129.728 175.63 130.6 175.63 131.736H174.598C174.598 130.472 174.782 129.392 175.15 128.496C175.534 127.584 176.07 126.896 176.758 126.432C177.446 125.952 178.262 125.712 179.206 125.712C180.646 125.712 181.766 126.16 182.566 127.056C183.366 127.936 183.766 129.296 183.766 131.136L181.078 131.856Z" fill="#274760"/>
<path d="M80.1274 165.112C79.3914 165.112 78.73 164.984 78.1434 164.728C77.5674 164.461 77.114 164.099 76.7834 163.64C76.4527 163.171 76.282 162.632 76.2714 162.024H77.8234C77.8767 162.547 78.09 162.989 78.4634 163.352C78.8474 163.704 79.402 163.88 80.1274 163.88C80.8207 163.88 81.3647 163.709 81.7594 163.368C82.1647 163.016 82.3674 162.568 82.3674 162.024C82.3674 161.597 82.25 161.251 82.0154 160.984C81.7807 160.717 81.4874 160.515 81.1354 160.376C80.7834 160.237 80.3087 160.088 79.7114 159.928C78.9754 159.736 78.3834 159.544 77.9354 159.352C77.498 159.16 77.1194 158.861 76.7994 158.456C76.49 158.04 76.3354 157.485 76.3354 156.792C76.3354 156.184 76.49 155.645 76.7994 155.176C77.1087 154.707 77.5407 154.344 78.0954 154.088C78.6607 153.832 79.306 153.704 80.0314 153.704C81.0767 153.704 81.93 153.965 82.5914 154.488C83.2634 155.011 83.642 155.704 83.7274 156.568H82.1274C82.074 156.141 81.85 155.768 81.4554 155.448C81.0607 155.117 80.538 154.952 79.8874 154.952C79.2794 154.952 78.7834 155.112 78.3994 155.432C78.0154 155.741 77.8234 156.179 77.8234 156.744C77.8234 157.149 77.9354 157.48 78.1594 157.736C78.394 157.992 78.6767 158.189 79.0074 158.328C79.3487 158.456 79.8234 158.605 80.4314 158.776C81.1674 158.979 81.7594 159.181 82.2074 159.384C82.6554 159.576 83.0394 159.88 83.3594 160.296C83.6794 160.701 83.8394 161.256 83.8394 161.96C83.8394 162.504 83.6954 163.016 83.4074 163.496C83.1194 163.976 82.6927 164.365 82.1274 164.664C81.562 164.963 80.8954 165.112 80.1274 165.112ZM93.758 156.232V165H92.302V163.704C92.0247 164.152 91.6353 164.504 91.134 164.76C90.6433 165.005 90.0993 165.128 89.502 165.128C88.8193 165.128 88.206 164.989 87.662 164.712C87.118 164.424 86.686 163.997 86.366 163.432C86.0567 162.867 85.902 162.179 85.902 161.368V156.232H87.342V161.176C87.342 162.04 87.5607 162.707 87.998 163.176C88.4353 163.635 89.0327 163.864 89.79 163.864C90.5687 163.864 91.182 163.624 91.63 163.144C92.078 162.664 92.302 161.965 92.302 161.048V156.232H93.758ZM97.6724 157.848C97.9604 157.347 98.387 156.931 98.9524 156.6C99.5284 156.259 100.195 156.088 100.952 156.088C101.731 156.088 102.435 156.275 103.064 156.648C103.704 157.021 104.206 157.549 104.568 158.232C104.931 158.904 105.112 159.688 105.112 160.584C105.112 161.469 104.931 162.259 104.568 162.952C104.206 163.645 103.704 164.184 103.064 164.568C102.435 164.952 101.731 165.144 100.952 165.144C100.206 165.144 99.5444 164.979 98.9684 164.648C98.403 164.307 97.971 163.885 97.6724 163.384V169.16H96.2164V156.232H97.6724V157.848ZM103.624 160.584C103.624 159.923 103.491 159.347 103.224 158.856C102.958 158.365 102.595 157.992 102.136 157.736C101.688 157.48 101.192 157.352 100.648 157.352C100.115 157.352 99.619 157.485 99.1604 157.752C98.7124 158.008 98.3497 158.387 98.0724 158.888C97.8057 159.379 97.6724 159.949 97.6724 160.6C97.6724 161.261 97.8057 161.843 98.0724 162.344C98.3497 162.835 98.7124 163.213 99.1604 163.48C99.619 163.736 100.115 163.864 100.648 163.864C101.192 163.864 101.688 163.736 102.136 163.48C102.595 163.213 102.958 162.835 103.224 162.344C103.491 161.843 103.624 161.256 103.624 160.584ZM108.485 157.848C108.773 157.347 109.2 156.931 109.765 156.6C110.341 156.259 111.008 156.088 111.765 156.088C112.544 156.088 113.248 156.275 113.877 156.648C114.517 157.021 115.018 157.549 115.381 158.232C115.744 158.904 115.925 159.688 115.925 160.584C115.925 161.469 115.744 162.259 115.381 162.952C115.018 163.645 114.517 164.184 113.877 164.568C113.248 164.952 112.544 165.144 111.765 165.144C111.018 165.144 110.357 164.979 109.781 164.648C109.216 164.307 108.784 163.885 108.485 163.384V169.16H107.029V156.232H108.485V157.848ZM114.437 160.584C114.437 159.923 114.304 159.347 114.037 158.856C113.77 158.365 113.408 157.992 112.949 157.736C112.501 157.48 112.005 157.352 111.461 157.352C110.928 157.352 110.432 157.485 109.973 157.752C109.525 158.008 109.162 158.387 108.885 158.888C108.618 159.379 108.485 159.949 108.485 160.6C108.485 161.261 108.618 161.843 108.885 162.344C109.162 162.835 109.525 163.213 109.973 163.48C110.432 163.736 110.928 163.864 111.461 163.864C112.005 163.864 112.501 163.736 112.949 163.48C113.408 163.213 113.77 162.835 114.037 162.344C114.304 161.843 114.437 161.256 114.437 160.584ZM121.665 165.144C120.844 165.144 120.097 164.957 119.425 164.584C118.764 164.211 118.241 163.683 117.857 163C117.484 162.307 117.297 161.507 117.297 160.6C117.297 159.704 117.489 158.915 117.873 158.232C118.268 157.539 118.801 157.011 119.473 156.648C120.145 156.275 120.897 156.088 121.729 156.088C122.561 156.088 123.313 156.275 123.985 156.648C124.657 157.011 125.185 157.533 125.569 158.216C125.964 158.899 126.161 159.693 126.161 160.6C126.161 161.507 125.959 162.307 125.553 163C125.159 163.683 124.62 164.211 123.937 164.584C123.255 164.957 122.497 165.144 121.665 165.144ZM121.665 163.864C122.188 163.864 122.679 163.741 123.137 163.496C123.596 163.251 123.964 162.883 124.241 162.392C124.529 161.901 124.673 161.304 124.673 160.6C124.673 159.896 124.535 159.299 124.257 158.808C123.98 158.317 123.617 157.955 123.169 157.72C122.721 157.475 122.236 157.352 121.713 157.352C121.18 157.352 120.689 157.475 120.241 157.72C119.804 157.955 119.452 158.317 119.185 158.808C118.919 159.299 118.785 159.896 118.785 160.6C118.785 161.315 118.913 161.917 119.169 162.408C119.436 162.899 119.788 163.267 120.225 163.512C120.663 163.747 121.143 163.864 121.665 163.864ZM129.532 157.656C129.788 157.155 130.15 156.765 130.62 156.488C131.1 156.211 131.681 156.072 132.364 156.072V157.576H131.98C130.348 157.576 129.532 158.461 129.532 160.232V165H128.076V156.232H129.532V157.656ZM135.821 157.432V162.6C135.821 163.027 135.911 163.331 136.093 163.512C136.274 163.683 136.589 163.768 137.036 163.768H138.109V165H136.797C135.986 165 135.378 164.813 134.973 164.44C134.567 164.067 134.365 163.453 134.365 162.6V157.432H133.229V156.232H134.365V154.024H135.821V156.232H138.109V157.432H135.821Z" fill="#274760"/>
<path fill-rule="evenodd" clip-rule="evenodd" d="M205 0C193.969 0 185 8.96875 185 20C185 31.0312 193.969 40 205 40C216.031 40 225 31.0312 225 20C225 8.96875 216.031 0 205 0Z" fill="#307BC4"/>
<path d="M201.148 29.1484C198.594 26.5938 196.055 24.0156 193.492 21.461C193.211 21.1797 193.211 20.711 193.492 20.4297L196.437 17.4844C196.719 17.2031 197.188 17.2031 197.469 17.4844L201.68 21.6953L212.508 10.8594C212.797 10.5781 213.258 10.5781 213.547 10.8594L216.5 13.8125C216.789 14.1016 216.789 14.5625 216.5 14.8438L202.18 29.1484C201.898 29.4375 201.438 29.4375 201.148 29.1484Z" fill="white"/>
</svg>
