<svg width="89" height="89" viewBox="0 0 89 89" fill="none" xmlns="http://www.w3.org/2000/svg">
<circle cx="44.5" cy="44.5" r="44.5" fill="white"/>
<path d="M63.8984 44.0875C63.89 44.0961 63.9257 44.0875 63.7917 44.0875C62.3799 44.0875 61.404 45.4364 61.8961 46.6934C61.6591 46.9507 62.6816 45.8976 45.3889 63.6217C44.8964 64.1256 44.1043 64.1266 43.6109 63.6217C26.3235 45.9021 27.3432 46.9533 27.1038 46.6934C27.6154 45.3865 26.546 44.0176 25.1032 44.0901C25.1023 44.0892 25.1023 44.0883 25.1015 44.0876C23.6704 41.7837 22.9521 39.2842 23.0025 36.719C23.1978 26.6506 35.1224 19.2268 44.5 27.6778C53.8723 19.2314 65.8021 26.6453 65.9975 36.719C66.0479 39.2842 65.3295 41.7837 63.8984 44.0875Z" fill="#86BBF1"/>
<path d="M63.8985 44.0875C63.8901 44.0962 63.9257 44.0875 63.7918 44.0875C62.38 44.0875 61.4041 45.4364 61.8962 46.6934C61.6592 46.9507 62.6817 45.8976 45.389 63.6217C45.1428 63.8736 44.8218 64 44.5 64V27.6778C50.3377 22.4169 57.6214 23.0889 62.2608 27.8674C66.3863 32.1181 67.3372 38.5516 63.8985 44.0875Z" fill="#307BC4"/>
<path d="M63.8985 44.0875C63.3414 44.9853 62.6759 45.8536 61.9046 46.6847H52.5667C52.1029 46.6847 51.6768 46.4224 51.4567 46.0017L47.9334 39.2591L42.9506 50.0976C42.5287 51.0152 41.2816 51.1049 40.7483 50.2387L37.1376 44.3931L36.1696 46.0544C35.9419 46.4458 35.5319 46.6847 35.089 46.6847H27.0955C26.3242 45.8535 25.6587 44.9852 25.1016 44.0874H34.3756L36.0251 41.2546C36.502 40.4337 37.6619 40.4043 38.1686 41.226L41.649 46.8604L46.7218 35.8263C47.1658 34.8642 48.481 34.8314 48.9712 35.7665L53.3196 44.0874H63.8985V44.0875Z" fill="white"/>
<path d="M48.9711 35.7666C48.4818 34.8334 47.1665 34.8626 46.7217 35.8264L44.5 40.6589V46.7272L47.9334 39.2591L51.4566 46.0016C51.6768 46.4223 52.1028 46.6847 52.5666 46.6847H61.9046C62.6759 45.8536 63.3414 44.9852 63.8985 44.0875H53.3195L48.9711 35.7666Z" fill="white"/>
</svg>
