<?xml version="1.0" encoding="utf-8"?>
<!-- Generator: Adobe Illustrator 24.1.2, SVG Export Plug-In . SVG Version: 6.00 Build 0)  -->
<svg version="1.1" id="Calque_1" xmlns="http://www.w3.org/2000/svg" xmlns:xlink="http://www.w3.org/1999/xlink" x="0px" y="0px"
	 viewBox="0 0 77 72" style="enable-background:new 0 0 77 72;" xml:space="preserve">
<style type="text/css">
	.st0{fill:#307BC4;}
</style>
<path class="st0" d="M37.7,0.2c0.8,5.7-0.9,11.9,3.9,17c2.9-0.6,5.8-0.9,8.5-1.8c13.2-4.4,25.1,7.8,22.9,21.8
	c-1.9,11.7-15.9,27.3-27.4,30c-6.5,1.5-12.4-0.1-18.1-3c-2.2-1.1-4.2-2.6-6.3-3.9c-3.4-2-5.9-1.1-6.9,2.8c-0.5,2.1-0.6,4.3-0.9,6.5
	c-0.1,0.8-0.4,1.5-1.3,2.4c-0.3-0.7-0.8-1.4-0.7-2.1c0.2-2.6,0.3-5.3,0.9-7.8c1.2-4.6,5.3-6.3,9.5-4c2.3,1.3,4.4,2.9,6.7,4.1
	c8.7,4.6,17.3,4.6,25.4-1.6c7-5.3,12.7-11.6,15.8-19.9c3-7.7,1.3-15-4.5-20.4c-3.3-3-7.2-4.4-11.7-3.5c-2.9,0.6-5.7,1.3-8.5,1.9
	c-4.2,0.9-6.8-0.5-8-4.6C35.9,9.5,35.4,4.8,37.7,0.2z"/>
<path class="st0" d="M3.8,69.3c-0.6-6.8,0.5-13.2,4.6-18.8c2.1-2.9,5.4-3.9,8.9-3.5c2.5,0.3,4.9,0.8,7.3,1.2
	c7.2,1.3,12.7-1.7,15-8.1c2.4-6.7-0.1-14-6.2-17.2c-4-2.1-6.2-5.4-6.3-9.7c0-3.4,0.6-6.9,1.1-10.3c0.1-0.6,0.7-1.1,1.9-1.4
	c-0.1,1-0.1,2-0.2,3c-0.3,2.6-0.9,5.2-0.9,7.8c0,3.9,1.9,6.8,5.4,8.8c8.9,4.9,11,17.6,4.1,25.1c-4.1,4.4-9.3,4.9-14.9,4.2
	c-2.2-0.3-4.3-0.8-6.4-1.1c-3.7-0.5-6.5,0.9-8.3,4.2c-2.1,3.8-3,7.9-3.3,12.1c-0.1,1.3-0.3,2.7-0.5,4C4.8,69.4,4.3,69.4,3.8,69.3z"
	/>
<path class="st0" d="M50.7,22c8.1-5.4,18.6,4.3,16.2,11.6C63.2,26.4,59.8,21.4,50.7,22z"/>
</svg>
