<?xml version="1.0" encoding="utf-8"?>
<!-- Generator: Adobe Illustrator 24.1.2, SVG Export Plug-In . SVG Version: 6.00 Build 0)  -->
<svg version="1.1" id="Calque_1" xmlns="http://www.w3.org/2000/svg" xmlns:xlink="http://www.w3.org/1999/xlink" x="0px" y="0px"
	 viewBox="0 0 77 72" style="enable-background:new 0 0 77 72;" xml:space="preserve">
<style type="text/css">
	.st0{fill:#307BC4;}
</style>
<g>
	<path class="st0" d="M57.9,17.9c-0.2,0-0.4,0-0.5-0.1c-0.2-0.1-0.3-0.2-0.4-0.4s-0.1-0.3-0.1-0.5c0-0.2,0.1-0.4,0.2-0.5
		c0.6-0.8,0.9-1.8,0.9-2.9c0-1.2-0.4-2.3-1.2-3.2c-0.8-0.9-1.8-1.5-3-1.7c-1.2-0.2-2.4,0.1-3.4,0.7c-1,0.6-1.8,1.6-2.1,2.7
		c-0.1,0.2-0.3,0.4-0.5,0.6s-0.5,0.1-0.7,0.1c-0.2-0.1-0.4-0.3-0.6-0.5c-0.1-0.2-0.1-0.5-0.1-0.7c0.5-1.6,1.6-2.9,3-3.8
		c1.4-0.9,3.1-1.2,4.7-0.9c1.6,0.3,3.1,1.1,4.2,2.4c1.1,1.3,1.7,2.9,1.7,4.5c0,1.4-0.4,2.8-1.3,4c-0.1,0.1-0.2,0.2-0.4,0.3
		C58.2,17.8,58,17.9,57.9,17.9z"/>
	<path class="st0" d="M65.5,29.2c-0.2,0-0.3,0-0.5-0.1c-0.1-0.1-0.3-0.2-0.4-0.3c-0.1-0.1-0.1-0.3-0.2-0.4c0-0.2,0-0.3,0.1-0.5
		c0.3-0.8,0.5-1.7,0.5-2.7c0-1-0.2-1.9-0.5-2.8c-0.4-0.9-0.9-1.7-1.6-2.4c-0.7-0.7-1.5-1.2-2.4-1.6c-0.9-0.4-1.9-0.6-2.8-0.6
		S55.8,18,55,18.3c-0.9,0.4-1.7,0.9-2.4,1.6c-0.7,0.7-1.2,1.5-1.6,2.4c-0.4,0.9-0.5,1.9-0.5,2.8c0,0.3-0.1,0.5-0.3,0.7
		c-0.2,0.2-0.4,0.3-0.7,0.3c-0.3,0-0.5-0.1-0.7-0.3c-0.2-0.2-0.3-0.4-0.3-0.7c0-1.2,0.2-2.5,0.7-3.6c0.5-1.1,1.1-2.2,2-3.1
		c0.9-0.9,1.9-1.6,3-2c1.1-0.5,2.4-0.7,3.6-0.7c1.2,0,2.4,0.2,3.6,0.7c1.1,0.5,2.2,1.2,3,2c0.9,0.9,1.5,1.9,2,3.1
		c0.5,1.1,0.7,2.4,0.7,3.6c0,1.2-0.2,2.3-0.7,3.4c-0.1,0.2-0.2,0.3-0.4,0.4C65.9,29.2,65.7,29.2,65.5,29.2z"/>
	<path class="st0" d="M60.5,44.2c-0.3,0-0.6,0-0.9,0c-0.1,0-0.3-0.1-0.4-0.1c-0.1-0.1-0.2-0.1-0.3-0.2c-0.1-0.1-0.1-0.2-0.2-0.3
		c0-0.1,0-0.3,0-0.4c0-0.1,0.1-0.3,0.1-0.4c0.1-0.1,0.1-0.2,0.2-0.3c0.1-0.1,0.2-0.1,0.3-0.2s0.3,0,0.4,0c0.2,0,0.5,0,0.7,0
		c1.5,0,3-0.5,4.3-1.4c1.2-0.9,2.2-2.2,2.7-3.6c0.5-1.5,0.5-3,0.1-4.5c-0.5-1.5-1.4-2.8-2.6-3.7c-0.2-0.2-0.3-0.4-0.4-0.6
		c0-0.3,0-0.5,0.2-0.7c0.2-0.2,0.4-0.3,0.6-0.4c0.3,0,0.5,0,0.7,0.2c1.5,1.2,2.7,2.8,3.3,4.7c0.6,1.9,0.5,3.9-0.1,5.7
		c-0.6,1.8-1.8,3.4-3.4,4.6C64.3,43.5,62.4,44.1,60.5,44.2L60.5,44.2z"/>
	<path class="st0" d="M56.9,64.8c-0.2,0-0.5-0.1-0.7-0.3c-0.2-0.2-0.3-0.4-0.3-0.6c0-0.2,0.1-0.5,0.2-0.7c0.2-0.2,0.4-0.3,0.6-0.4
		c1.7-0.3,3.3-1.2,4.4-2.5c1.1-1.3,1.7-3,1.7-4.7c0-0.7-0.1-1.4-0.3-2.1c0-0.1,0-0.3,0-0.4c0-0.1,0.1-0.3,0.1-0.4
		c0.1-0.1,0.1-0.2,0.2-0.3c0.1-0.1,0.2-0.1,0.3-0.2c0.1,0,0.3,0,0.4,0c0.1,0,0.3,0.1,0.4,0.1c0.1,0.1,0.2,0.1,0.3,0.2
		c0.1,0.1,0.1,0.2,0.2,0.3c0.3,0.9,0.4,1.8,0.4,2.7c0,2.2-0.8,4.3-2.2,6c-1.4,1.7-3.4,2.8-5.6,3.1C57,64.8,56.9,64.8,56.9,64.8z"/>
	<path class="st0" d="M63.5,54.2c-0.2,0-0.4-0.1-0.6-0.2c-0.2-0.1-0.3-0.3-0.3-0.6c0-0.2,0-0.4,0.1-0.6c0.1-0.2,0.3-0.4,0.5-0.5
		c1.3-0.6,2.4-1.5,3.1-2.7c0.8-1.2,1.2-2.6,1.2-4c0-1.6-0.5-3.2-1.6-4.5c-0.2-0.2-0.2-0.5-0.2-0.7c0-0.3,0.2-0.5,0.4-0.6
		c0.2-0.2,0.5-0.2,0.7-0.2c0.3,0,0.5,0.2,0.7,0.4c0.9,1.1,1.5,2.4,1.8,3.8c0.3,1.4,0.3,2.8-0.1,4.2c-0.3,1.4-1,2.6-1.9,3.7
		c-0.9,1.1-2,1.9-3.3,2.5C63.7,54.1,63.6,54.2,63.5,54.2z"/>
	<path class="st0" d="M48.1,70.4c-2.8,0-5.5-1.1-7.5-3.1c-2-2-3.1-4.7-3.1-7.5v-52c0-0.9,0.1-1.8,0.4-2.6c0.3-0.8,0.8-1.6,1.4-2.2
		c0.7-0.6,1.5-1.1,2.4-1.3c0.9-0.2,1.8-0.2,2.7,0c4.4,1,8.4,3,12,5.7c0.2,0.2,0.3,0.4,0.4,0.7c0,0.3,0,0.5-0.2,0.7S56.3,9.2,56,9.2
		c-0.3,0-0.5,0-0.7-0.2C52,6.5,48.2,4.6,44.1,3.7c-0.6-0.1-1.2-0.1-1.8,0c-0.6,0.1-1.1,0.4-1.6,0.8c-0.4,0.4-0.8,1-1,1.5
		c-0.2,0.6-0.3,1.2-0.3,1.8v52c0,2,0.7,3.9,1.9,5.4c1.2,1.5,3,2.6,4.9,3c1.9,0.4,3.9,0.2,5.7-0.7c1.8-0.9,3.2-2.3,4-4.1
		c0.1-0.2,0.3-0.4,0.5-0.5c0.2-0.1,0.5-0.1,0.8,0c0.2,0.1,0.4,0.3,0.5,0.5c0.1,0.2,0.1,0.5,0,0.8c-0.8,1.9-2.2,3.4-3.9,4.5
		C52.1,69.8,50.2,70.4,48.1,70.4z"/>
	<path class="st0" d="M19.2,17.9c-0.2,0-0.3,0-0.4-0.1c-0.1-0.1-0.3-0.2-0.3-0.3c-0.8-1.2-1.3-2.6-1.3-4c0-1.7,0.6-3.3,1.7-4.5
		c1.1-1.3,2.6-2.1,4.2-2.4c1.6-0.3,3.3,0.1,4.7,0.9c1.4,0.9,2.5,2.2,3,3.8c0,0.1,0.1,0.3,0.1,0.4c0,0.1,0,0.3-0.1,0.4
		c-0.1,0.1-0.1,0.2-0.2,0.3c-0.1,0.1-0.2,0.2-0.3,0.2c-0.1,0-0.3,0.1-0.4,0c-0.1,0-0.3,0-0.4-0.1c-0.1-0.1-0.2-0.1-0.3-0.2
		c-0.1-0.1-0.1-0.2-0.2-0.3c-0.4-1.1-1.1-2.1-2.1-2.7c-1-0.6-2.2-0.9-3.4-0.7c-1.2,0.2-2.2,0.8-3,1.7c-0.8,0.9-1.2,2.1-1.2,3.2
		c0,1,0.3,2,0.9,2.9c0.1,0.1,0.2,0.3,0.2,0.5c0,0.2,0,0.4-0.1,0.5s-0.2,0.3-0.4,0.4C19.5,17.8,19.3,17.9,19.2,17.9L19.2,17.9z"/>
	<path class="st0" d="M11.5,29.2c-0.2,0-0.4-0.1-0.5-0.2c-0.2-0.1-0.3-0.3-0.4-0.4c-0.4-1.1-0.7-2.2-0.7-3.4c0-1.2,0.2-2.5,0.7-3.6
		c0.5-1.1,1.1-2.2,2-3.1c0.9-0.9,1.9-1.6,3-2c1.1-0.5,2.4-0.7,3.6-0.7c1.2,0,2.4,0.2,3.6,0.7c1.1,0.5,2.2,1.2,3,2
		c0.9,0.9,1.5,1.9,2,3.1c0.5,1.1,0.7,2.4,0.7,3.6c0,0.3-0.1,0.5-0.3,0.7c-0.2,0.2-0.4,0.3-0.7,0.3c-0.3,0-0.5-0.1-0.7-0.3
		c-0.2-0.2-0.3-0.4-0.3-0.7c0-1-0.2-1.9-0.5-2.8c-0.4-0.9-0.9-1.7-1.6-2.4c-0.7-0.7-1.5-1.2-2.4-1.6c-0.9-0.4-1.9-0.6-2.8-0.6
		c-1,0-1.9,0.2-2.8,0.6c-0.9,0.4-1.7,0.9-2.4,1.6c-0.7,0.7-1.2,1.5-1.6,2.4c-0.4,0.9-0.5,1.9-0.5,2.8c0,0.9,0.2,1.8,0.5,2.7
		c0.1,0.2,0.1,0.5,0,0.7c-0.1,0.2-0.3,0.4-0.5,0.5C11.8,29.2,11.6,29.2,11.5,29.2z"/>
	<path class="st0" d="M16.5,44.2c-1.9,0-3.8-0.6-5.4-1.7c-1.6-1.1-2.8-2.7-3.4-4.6C7.1,36,7.1,34,7.6,32.1c0.6-1.9,1.7-3.5,3.3-4.7
		c0.2-0.2,0.5-0.2,0.7-0.2c0.3,0,0.5,0.2,0.6,0.4c0.2,0.2,0.2,0.5,0.2,0.7c0,0.3-0.2,0.5-0.4,0.6c-1.2,0.9-2.1,2.2-2.6,3.7
		c-0.4,1.5-0.4,3,0.1,4.5c0.5,1.5,1.4,2.7,2.7,3.6c1.2,0.9,2.7,1.4,4.3,1.4c0.3,0,0.5,0,0.7,0c0.1,0,0.3,0,0.4,0s0.2,0.1,0.3,0.2
		c0.1,0.1,0.2,0.2,0.2,0.3c0.1,0.1,0.1,0.2,0.1,0.4c0,0.1,0,0.3,0,0.4c0,0.1-0.1,0.2-0.2,0.3c-0.1,0.1-0.2,0.2-0.3,0.2
		c-0.1,0.1-0.2,0.1-0.4,0.1C17.2,44.1,16.9,44.2,16.5,44.2z"/>
	<path class="st0" d="M20.1,64.8c-0.1,0-0.1,0-0.2,0c-2.2-0.4-4.2-1.5-5.6-3.1s-2.2-3.8-2.2-6c0-0.9,0.1-1.8,0.4-2.7
		c0-0.1,0.1-0.2,0.2-0.3c0.1-0.1,0.2-0.2,0.3-0.2c0.1-0.1,0.2-0.1,0.4-0.1c0.1,0,0.3,0,0.4,0c0.1,0,0.2,0.1,0.3,0.2
		c0.1,0.1,0.2,0.2,0.2,0.3c0.1,0.1,0.1,0.2,0.1,0.4c0,0.1,0,0.3,0,0.4c-0.2,0.7-0.3,1.4-0.3,2.1c0,1.7,0.6,3.4,1.7,4.7
		c1.1,1.3,2.7,2.2,4.4,2.5c0.2,0,0.5,0.2,0.6,0.4c0.2,0.2,0.2,0.4,0.2,0.7c0,0.2-0.1,0.5-0.3,0.6C20.6,64.7,20.4,64.8,20.1,64.8
		L20.1,64.8z"/>
	<path class="st0" d="M13.5,54.2c-0.1,0-0.3,0-0.4-0.1c-1.3-0.6-2.4-1.4-3.3-2.5c-0.9-1.1-1.5-2.4-1.9-3.7c-0.3-1.4-0.4-2.8-0.1-4.2
		c0.3-1.4,0.9-2.7,1.8-3.8c0.1-0.1,0.2-0.2,0.3-0.3c0.1-0.1,0.2-0.1,0.4-0.1c0.1,0,0.3,0,0.4,0c0.1,0,0.2,0.1,0.3,0.2
		c0.1,0.1,0.2,0.2,0.3,0.3c0.1,0.1,0.1,0.2,0.1,0.4c0,0.1,0,0.3,0,0.4c0,0.1-0.1,0.2-0.2,0.3c-1,1.3-1.6,2.9-1.6,4.5
		c0,1.4,0.4,2.8,1.2,4c0.8,1.2,1.9,2.1,3.1,2.7c0.2,0.1,0.4,0.3,0.5,0.5c0.1,0.2,0.1,0.4,0.1,0.6c0,0.2-0.2,0.4-0.3,0.6
		C14,54.1,13.8,54.2,13.5,54.2L13.5,54.2z"/>
	<path class="st0" d="M28.9,70.4c-2,0-4-0.6-5.7-1.7c-1.7-1.1-3.1-2.7-3.9-4.5c-0.1-0.2-0.1-0.5,0-0.8c0.1-0.2,0.3-0.4,0.5-0.5
		c0.2-0.1,0.5-0.1,0.8,0c0.2,0.1,0.4,0.3,0.5,0.5c0.8,1.8,2.2,3.3,4,4.1c1.8,0.9,3.8,1.1,5.7,0.7c1.9-0.4,3.7-1.5,4.9-3
		c1.2-1.5,1.9-3.4,1.9-5.4v-52c0-0.6-0.1-1.2-0.3-1.8c-0.2-0.6-0.5-1.1-1-1.5c-0.5-0.4-1-0.7-1.6-0.8c-0.6-0.1-1.2-0.1-1.8,0
		c-4,1-7.8,2.8-11.1,5.3c-0.2,0.1-0.5,0.2-0.7,0.2c-0.2,0-0.5-0.2-0.6-0.4c-0.2-0.2-0.2-0.4-0.2-0.7c0-0.3,0.1-0.5,0.3-0.7
		c3.5-2.7,7.6-4.7,12-5.7c0.9-0.2,1.8-0.2,2.7,0c0.9,0.2,1.7,0.7,2.4,1.3c0.6,0.6,1.1,1.4,1.4,2.2c0.3,0.8,0.5,1.7,0.4,2.6v52
		c0,2.8-1.1,5.5-3.1,7.5C34.4,69.3,31.7,70.4,28.9,70.4z"/>
	<path class="st0" d="M38.5,22.2c-0.1,0-0.2,0-0.3,0c-0.1,0-0.2-0.1-0.3-0.2c-0.1-0.1-0.2-0.2-0.2-0.3c-0.1-0.1-0.1-0.2-0.1-0.4
		c0-0.1,0-0.3,0-0.4c0.5-1.8,2.5-5.2,6.2-4.8c0.3,0,0.5,0.2,0.7,0.4c0.2,0.2,0.2,0.5,0.2,0.7c0,0.3-0.2,0.5-0.4,0.7
		c-0.2,0.2-0.5,0.2-0.7,0.2c-3-0.3-4.1,3.4-4.1,3.4c-0.1,0.2-0.2,0.4-0.4,0.5C38.9,22.1,38.7,22.2,38.5,22.2z"/>
	<path class="st0" d="M38.5,27.1c-0.2,0-0.4-0.1-0.6-0.2c-0.2-0.1-0.3-0.3-0.4-0.5c0-0.2-1.1-3.7-4.1-3.4c-0.3,0-0.5-0.1-0.7-0.2
		c-0.2-0.2-0.3-0.4-0.4-0.7c0-0.3,0.1-0.5,0.2-0.7c0.2-0.2,0.4-0.3,0.7-0.4c3.7-0.4,5.7,3,6.2,4.8c0,0.1,0,0.3,0,0.4
		c0,0.1-0.1,0.3-0.1,0.4c-0.1,0.1-0.1,0.2-0.2,0.3C39,27,38.9,27,38.8,27.1C38.7,27.1,38.6,27.1,38.5,27.1z"/>
	<path class="st0" d="M52,33.7c-1.4,0-2.7-0.3-3.9-0.9c-1.2-0.6-2.3-1.4-3.2-2.5c-0.1-0.1-0.2-0.2-0.2-0.3c0-0.1-0.1-0.3,0-0.4
		c0-0.1,0-0.3,0.1-0.4c0.1-0.1,0.1-0.2,0.2-0.3c0.1-0.1,0.2-0.1,0.3-0.2c0.1,0,0.3-0.1,0.4,0c0.1,0,0.3,0.1,0.4,0.1
		c0.1,0.1,0.2,0.1,0.3,0.3c1,1.2,2.3,2,3.7,2.4c1.5,0.4,3,0.3,4.4-0.2c1.4-0.5,2.6-1.4,3.5-2.7c0.9-1.2,1.3-2.7,1.3-4.2
		c0-0.2,0-0.4,0-0.6c0-0.1,0-0.3,0-0.4c0-0.1,0.1-0.2,0.2-0.3c0.1-0.1,0.2-0.2,0.3-0.2c0.1-0.1,0.2-0.1,0.4-0.1c0.1,0,0.3,0,0.4,0
		c0.1,0,0.2,0.1,0.3,0.2c0.1,0.1,0.2,0.2,0.2,0.3c0.1,0.1,0.1,0.2,0.1,0.4c0,0.2,0,0.5,0,0.7c0,2.5-1,4.8-2.7,6.6
		C56.8,32.8,54.4,33.7,52,33.7z"/>
	<path class="st0" d="M57.8,39.4L57.8,39.4c-4.8-0.1-7-4.3-7.6-6.5c-0.1-0.3,0-0.5,0.1-0.7c0.1-0.2,0.4-0.4,0.6-0.4
		c0.3-0.1,0.5,0,0.7,0.1c0.2,0.1,0.4,0.4,0.4,0.6c0,0.2,1.2,4.9,5.7,5c0.3,0,0.5,0.1,0.7,0.3c0.2,0.2,0.3,0.4,0.3,0.7
		c0,0.3-0.1,0.5-0.3,0.7C58.3,39.3,58,39.4,57.8,39.4z"/>
	<path class="st0" d="M51.8,52.6L51.8,52.6c-0.3,0-0.6-0.1-0.8-0.3c-0.2-0.2-0.3-0.5-0.2-0.7c0.1-1,0.1-2.1-0.2-3.1
		c-0.3-1-0.7-1.9-1.4-2.7c-1.6-1.6-3.6-2.6-5.9-2.8c-0.3,0-0.5-0.1-0.7-0.3c-0.2-0.2-0.3-0.5-0.2-0.7c0-0.3,0.1-0.5,0.3-0.7
		C43,41,43.3,41,43.5,41c2.7,0.3,5.3,1.5,7.2,3.5c0.8,1,1.4,2.2,1.8,3.4c0.4,1.2,0.4,2.5,0.3,3.8c0,0.2-0.1,0.5-0.3,0.6
		C52.3,52.5,52,52.6,51.8,52.6z"/>
	<path class="st0" d="M45.5,61.1L45.5,61.1c-0.2,0-0.3,0-0.4-0.1c-0.1-0.1-0.2-0.1-0.3-0.2c-0.1-0.1-0.2-0.2-0.2-0.3
		c0-0.1-0.1-0.3-0.1-0.4c0.2-3.5,2.4-9.9,9.8-9.7c0.1,0,0.3,0,0.4,0.1c0.1,0.1,0.2,0.1,0.3,0.2c0.1,0.1,0.2,0.2,0.2,0.3
		c0,0.1,0.1,0.2,0.1,0.4c0,0.1,0,0.3-0.1,0.4c-0.1,0.1-0.1,0.2-0.2,0.3c-0.1,0.1-0.2,0.2-0.3,0.2c-0.1,0-0.2,0.1-0.4,0.1
		c-7.3-0.3-7.7,7.5-7.8,7.8c0,0.3-0.1,0.5-0.3,0.7C46,61,45.8,61.1,45.5,61.1z"/>
	<path class="st0" d="M27.4,34.9c-2.5,0-4.8-1-6.6-2.7c-1.7-1.7-2.7-4.1-2.7-6.6c0-0.2,0-0.5,0-0.7c0-0.1,0-0.3,0.1-0.4
		c0.1-0.1,0.1-0.2,0.2-0.3c0.1-0.1,0.2-0.2,0.3-0.2c0.1,0,0.3-0.1,0.4,0c0.1,0,0.3,0,0.4,0.1c0.1,0.1,0.2,0.1,0.3,0.2
		c0.1,0.1,0.1,0.2,0.2,0.3c0,0.1,0.1,0.3,0,0.4c0,0.2,0,0.4,0,0.6c0,1.5,0.5,3,1.3,4.2c0.9,1.2,2.1,2.2,3.5,2.7
		c1.4,0.5,2.9,0.6,4.4,0.2c1.4-0.4,2.7-1.2,3.7-2.4c0.1-0.1,0.2-0.2,0.3-0.2c0.1-0.1,0.2-0.1,0.4-0.1c0.1,0,0.3,0,0.4,0
		c0.1,0,0.2,0.1,0.3,0.2c0.1,0.1,0.2,0.2,0.2,0.3c0.1,0.1,0.1,0.2,0.1,0.4c0,0.1,0,0.3,0,0.4c0,0.1-0.1,0.2-0.2,0.3
		c-0.9,1-2,1.9-3.2,2.5C30.1,34.6,28.8,34.9,27.4,34.9z"/>
	<path class="st0" d="M21.6,40.6c-0.3,0-0.5-0.1-0.7-0.3c-0.2-0.2-0.3-0.4-0.3-0.7c0-0.3,0.1-0.5,0.3-0.7c0.2-0.2,0.4-0.3,0.7-0.3
		c4.4-0.1,5.6-4.8,5.7-5c0.1-0.3,0.2-0.5,0.4-0.6c0.2-0.1,0.5-0.2,0.7-0.1c0.3,0.1,0.5,0.2,0.6,0.4c0.1,0.2,0.2,0.5,0.1,0.7
		C28.7,36.3,26.4,40.5,21.6,40.6L21.6,40.6z"/>
	<path class="st0" d="M21.8,55.1c-0.2,0-0.5-0.1-0.7-0.3s-0.3-0.4-0.3-0.6c-0.2-1.3-0.1-2.6,0.3-3.8c0.4-1.2,1-2.4,1.8-3.4
		c1.9-2,4.5-3.3,7.2-3.5c0.3,0,0.5,0.1,0.7,0.2c0.2,0.2,0.3,0.4,0.3,0.7c0,0.1,0,0.3,0,0.4c0,0.1-0.1,0.2-0.2,0.3
		c-0.1,0.1-0.2,0.2-0.3,0.2c-0.1,0.1-0.2,0.1-0.4,0.1c-2.2,0.2-4.3,1.2-5.9,2.8C23.7,49.1,23.3,50,23,51c-0.3,1-0.3,2-0.2,3.1
		c0,0.3-0.1,0.5-0.2,0.7C22.4,55,22.2,55.1,21.8,55.1L21.8,55.1z"/>
	<path class="st0" d="M28.1,63.6c-0.3,0-0.5-0.1-0.7-0.3c-0.2-0.2-0.3-0.4-0.3-0.7c0-0.3-0.5-8.1-7.8-7.8c-0.3,0-0.5-0.1-0.7-0.3
		c-0.2-0.2-0.3-0.4-0.3-0.7c0-0.3,0.1-0.5,0.3-0.7c0.2-0.2,0.4-0.3,0.7-0.3c7.4-0.3,9.6,6.2,9.8,9.7c0,0.1,0,0.3-0.1,0.4
		c0,0.1-0.1,0.2-0.2,0.3c-0.1,0.1-0.2,0.2-0.3,0.2C28.4,63.6,28.3,63.6,28.1,63.6L28.1,63.6z"/>
	<path class="st0" d="M38.5,60.8L38.5,60.8c-0.1,0-0.3,0-0.4-0.1c-0.1-0.1-0.2-0.1-0.3-0.2c-0.1-0.1-0.2-0.2-0.2-0.3
		c0-0.1-0.1-0.2-0.1-0.4c0.1-1.9-0.6-3.8-1.7-5.3c-1.2-1.5-2.9-2.6-4.8-2.9c-0.3,0-0.5-0.2-0.6-0.4c-0.1-0.2-0.2-0.5-0.2-0.7
		c0-0.3,0.2-0.5,0.4-0.6s0.5-0.2,0.7-0.2c0.1,0,8.2,1.7,8.1,10.2c0,0.3-0.1,0.5-0.3,0.7C39,60.7,38.8,60.8,38.5,60.8z"/>
</g>
</svg>
