<?xml version="1.0" encoding="utf-8"?>
<!-- Generator: Adobe Illustrator 24.1.2, SVG Export Plug-In . SVG Version: 6.00 Build 0)  -->
<svg version="1.1" id="Calque_1" xmlns="http://www.w3.org/2000/svg" xmlns:xlink="http://www.w3.org/1999/xlink" x="0px" y="0px"
	 viewBox="0 0 77 72" style="enable-background:new 0 0 77 72;" xml:space="preserve">
<style type="text/css">
	.st0{fill:#307BC4;}
</style>
<path class="st0" d="M20.3,25.2c-3-3-6-6-9.1-9.1c-0.9,0.4-1.8,0.9-3.1,1.5C9,14.4,15.8,7.7,18.8,7c-0.7,1.2-1.2,2.2-1.9,3.3
	c3,2.9,6.1,5.8,9.5,8.9c2.1-1.9,4.4-4.1,7-6.5c1,2.7-1.7,3.1-1.9,5.1c3.9,3.9,8,8.1,12.1,12.2c3.1,3.1,6.2,6.2,9.3,9.3
	c0.9,1,1.6,2.2,2.4,3.3c-1,1.4-1.6,2.4-2.4,3.6c1.4,1.5,2.7,3,4.2,4.6C57,52,56.8,53,56.6,54c3.6,4.3,8.2,7.7,11.2,12.6
	c-4.9-2.8-8.3-7.5-12.7-11.1c-0.9,0.1-2,0.3-3.1,0.4c-1.6-1.4-3.1-2.7-4.6-4.1c-1.2,0.8-2.3,1.6-3.7,2.5c-4.8-3.4-8.5-8-12.7-12
	c-4.1-4-8-8.2-12-12.3c-1.6,1.2-2.7,2-3.9,2.9C15.4,29.2,18.9,27.9,20.3,25.2z M30.3,38.7c2.9,0,6,0,9.2,0c3-0.1,6.1,0.3,9.3-0.2
	c-1.2-1.4-2.1-2.6-2.9-3.5c-1.3,0.4-2.2,0.8-3.8,1.3c0.8-1.7,1.2-2.6,1.6-3.5c-1.5-1.4-2.7-2.6-4-3.8c-1.5,1.1-2.7,2-3.8,2.8
	c-0.2-0.2-0.5-0.5-0.7-0.7c0.9-1.3,1.9-2.5,2.6-3.5c-1.3-1.6-2.4-3.1-3.6-4.5c-1.6,1.1-2.8,2-4.1,3c-0.2-0.2-0.5-0.5-0.7-0.7
	c0.9-1.2,1.7-2.4,3-4.1c-0.8-0.7-1.7-1.5-2.5-2.1c-3.4,3.4-6.5,6.6-9.6,9.7C23.5,31.9,26.7,35,30.3,38.7z M32.3,40.4
	c4.2,4.2,7.8,7.8,11.3,11.4c3.1-3.1,6.2-6.2,9.7-9.6c-0.9-0.6-1.9-1.6-2.9-1.7C44.5,40.4,38.6,40.4,32.3,40.4z M24.5,21.3
	c-3.2-3.4-6.2-6.5-9.3-9.7c-0.9,0.9-1.6,1.8-2,2.1c3.1,3.4,5.9,6.4,8.9,9.7C22.9,22.7,23.7,22,24.5,21.3z M55.1,52.1
	c-1.3-1.6-2.5-3-3.8-4.6c-1,1.1-1.7,2-2.5,2.9c0.8,0.9,1.3,1.5,1.9,2.1c0.6,0.6,1.2,1,2,1.7C53.7,53.3,54.4,52.6,55.1,52.1z"/>
</svg>
