<?xml version="1.0" encoding="utf-8"?>
<!-- Generator: Adobe Illustrator 24.1.2, SVG Export Plug-In . SVG Version: 6.00 Build 0)  -->
<svg version="1.1" id="Calque_1" xmlns="http://www.w3.org/2000/svg" xmlns:xlink="http://www.w3.org/1999/xlink" x="0px" y="0px"
	 viewBox="0 0 77 72" style="enable-background:new 0 0 77 72;" xml:space="preserve">
<style type="text/css">
	.st0{fill:#307BC4;}
</style>
<path class="st0" d="M46.8,40.4C51.9,47.2,56.9,54,62,60.8c-0.2,0.4-0.4,0.7-0.6,1.1c-2.9-0.3-5.7-0.6-9-1c-0.8,2.7-1.7,5.5-2.8,9
	c-3-2.6-3.9-5.9-5.6-8.5c-1.8-2.7-3.5-5.6-5.7-9.1c-3.7,6-7,11.5-10.4,17c-0.3,0-0.6,0-0.9-0.1c-0.8-2.9-1.5-5.9-2.4-9.2
	c-3.1,0.6-6.1,1.2-9.1,1.8c-0.2-0.3-0.4-0.5-0.6-0.8c4.2-7.4,9.7-13.9,15.1-20.8c-1.2-2.1-2.4-4.2-3.6-6.4
	c-2.3-4.1-3.9-8.5-4.4-13.2c-1-8.2,4.3-16.1,11.9-18.1c8-2.1,15.8,1.5,19.1,9.1c2.2,5.2,1.9,10.6-0.1,15.7
	C51.2,31.8,49,35.9,46.8,40.4z M29.6,7.5C29,8,28.3,8.4,27.8,9c-4,4.6-4.3,9.9-2.9,15.5c1.3,5.1,3.9,9.6,6.8,14
	c5.1,7.8,10.1,15.7,15.1,23.6c0.6,0.9,1.2,1.7,2,2.9c0.8-2.5,1.5-4.5,2.3-6.6c2.4,0.3,4.5,0.6,7.2,0.9c-0.9-1.4-1.4-2.4-2.1-3.2
	c-5.7-7-11.3-14.2-17.3-21c-5.1-5.7-8.8-11.9-9.2-19.7C29.5,12.9,29.6,10.3,29.6,7.5z M44.8,14c-5.1-4.2-8.2-4.2-12.8-0.1
	c-0.4,6.8,1.8,12.7,6.3,17C42.7,26.6,45,20.5,44.8,14z M31.4,41.9c-4.5,6-8.5,11.3-13,17.2c3.3-0.6,5.6-1,8-1.4
	c0.6,2.6,1.1,4.7,1.7,7.4c3.1-5.1,6-9.8,8.9-14.6C35.2,47.7,33.5,45.1,31.4,41.9z M44.9,38.4c4.6-6.7,8-13.1,7.5-20.9
	c-0.2-4-1.8-7.3-5-9.9c-0.5,4.7-0.3,9.3-1.5,13.5c-1.1,4.2-3.5,8.2-5.4,12.5C41.6,34.9,43,36.4,44.9,38.4z M32.8,5.4
	c-0.3,1.7-0.5,3.2-0.9,5.7c4.7-3.2,8.8-2.3,13.3-0.5c-0.6-2.2-1-3.8-1.4-5.2C40,3.5,36.6,3.8,32.8,5.4z"/>
</svg>
