<?xml version="1.0" encoding="utf-8"?>
<!-- Generator: Adobe Illustrator 24.1.2, SVG Export Plug-In . SVG Version: 6.00 Build 0)  -->
<svg version="1.1" id="Calque_1" xmlns="http://www.w3.org/2000/svg" xmlns:xlink="http://www.w3.org/1999/xlink" x="0px" y="0px"
	 viewBox="0 0 77 72" style="enable-background:new 0 0 77 72;" xml:space="preserve">
<style type="text/css">
	.st0{fill:#307BC4;}
</style>
<path class="st0" d="M34.7,39.6c7.7,3,10.6,7.8,8.2,13.7c-2.2,5.5-7.6,7-15.6,3.9c-2.3,2.5-4.7,5.3-7.3,7.9
	c-2.4,2.3-4.5,5.2-8.2,7.3c1-3.4,10-12.9,16.1-17.7c3.5,2.2,7.2,3.5,10.9,0.5c2.5-2,3-4.8,2.2-7.8c-0.8-3.2-2.9-4.6-8.6-5.6
	c-0.2-0.9-0.4-2-0.7-3c-0.7-3.1-2.5-5.1-5.5-5.8c-3-0.7-5.7,0.1-7.6,2.6c-1.9,2.5-2.1,5.2-0.7,8c0.4,0.9,0.8,1.8,1.5,3
	C14.1,52,8.7,57.4,3,63.1c-1.1-2.6,0.4-3.3,1.3-4.2c4.1-4.1,8.3-8.2,12.3-12.2c-2.6-8.4-0.9-13.6,4.8-15.6
	C27.1,29.1,31.5,31.9,34.7,39.6z"/>
<path class="st0" d="M47.2,15.9c4.9-4.9,9.9-9.8,14.9-14.8c0.3,0.3,0.6,0.5,0.9,0.8c-0.2,2.8-3,3.9-4.5,5.7
	c-1.7,1.9-3.6,3.7-5.4,5.5c-1.9,1.9-3.8,3.7-5.8,5.7c-3.9-2.2-7.6-3.5-11.3-0.5c-2.3,1.9-2.8,4.6-2.2,7.4c0.7,3.4,2.7,4.8,8.6,6
	c0.2,0.8,0.5,1.8,0.6,2.7c0.5,3.1,2.3,5.2,5.3,6c3,0.8,5.7,0.1,7.7-2.3c2-2.4,2.1-5.2,1-8c-0.4-0.9-0.9-1.7-1.6-3
	C60.6,21.5,66,16,72.2,10.3c-0.4,3.1-0.3,3.1-6.5,9.2c-2.5,2.5-5.3,4.7-7.5,6.7c2.7,9.5,0.9,14.7-5.2,16.4
	C47.3,44.2,42.7,41,40.5,34c-8.3-3.9-10.8-8.1-8.4-14C34.2,14.7,39.4,13.2,47.2,15.9z"/>
</svg>
