<?xml version="1.0" encoding="utf-8"?>
<!-- Generator: Adobe Illustrator 24.1.2, SVG Export Plug-In . SVG Version: 6.00 Build 0)  -->
<svg version="1.1" id="Calque_1" xmlns="http://www.w3.org/2000/svg" xmlns:xlink="http://www.w3.org/1999/xlink" x="0px" y="0px"
	 viewBox="0 0 77 72" style="enable-background:new 0 0 77 72;" xml:space="preserve">
<style type="text/css">
	.st0{fill:#307BC4;}
</style>
<g>
	<path class="st0" d="M67.5,19.8C67.5,19.8,67.5,19.8,67.5,19.8c-0.2-1.5-7.3-7.5-13.8-7.5c-7,0-13.6,8.6-15.4,8.7
		c-1.7,0-1.7,2.5,0,2.5c5.1,0,11.1-15.5,24.6-4.9c-1.6,0.4-2.7,1.4-3.3,2.9c-4-3.4-10.5-1.5-12.3,2.8c-0.6,1.5,1.7,2.5,2.3,0.9
		c1.4-3.2,7.2-4.6,9.8,0.1C61.6,29.2,68.5,26.1,67.5,19.8z M61.7,24.1c0-2.3,1-3.4,3.3-3.2C65,24.1,62.3,25.2,61.7,24.1z"/>
	<path class="st0" d="M52.4,25.8c0,0,3.8,4.4,3.8,10.2c0,12.4-10.1,32.4-16.4,32.4c-4.5,0-25.5-16.9-27.6-30.4
		C36.5,48.3,27.4,7.5,50.2,7.3c0.9,0,3.4,0,4.8,0c1,0,2.6,0.5,2.6,3.7c0,1.7,2.5,1.7,2.5,0c0-4.6-2.8-6.2-5.2-6.2
		c-1.5,0-3.7,0-5.2,0v0c-5.7,0.1-9.7,2.6-12.7,6V7.3c0-1.8-1.6-3.8-5.1-3.8c-1.5,0-2.6,0.3-3.5,1c-0.8-1.4-2.9-3.5-4.8-3.5
		c-4.1,0-8.2,4.8-5.7,8.1c1.9,2.5,2.4,5.1,2.6,6.2C18.1,17,9.4,23.4,9.4,36c0,15,24,34.9,30.3,34.9c8.9,0,19-22.8,19-34.9
		c0-6.7-4.2-11.6-4.4-11.8C53.2,22.9,51.3,24.5,52.4,25.8z M30.3,23.6c-1.2-3.3-3.5-7.8-7.1-8.6c-0.2-1.2-0.6-3.1-1.8-5.3
		c2.4-0.5,4-2.1,4.7-4.3c1.2,1.5,1,3.4,1,8.2c0,1.7,2.5,1.7,2.5,0V9.8c1.8,0.5,3.5,0.3,5.1-0.3v4.8C32.9,17.3,31.5,20.5,30.3,23.6z
		 M34.4,6.8c-2,1.2-3.8,0.8-4.8,0.4C30.2,5.6,33.7,5.8,34.4,6.8z M23.9,3.6c-0.4,2.3-1.6,3.6-4,3.7C19.5,6.1,21.7,3.4,23.9,3.6z
		 M22.3,17.3c3.3,0.4,5.7,7.1,6.4,10c-3.8,9-7,12.8-16.8,8C12.3,23.8,20.6,18.3,22.3,17.3z"/>
	<path class="st0" d="M41,27.3v7.2l-4.7,8.2l-5.4,3.2l-3.1-2.1c-0.3-0.2-0.7-0.3-1.1-0.1l-3.8,1.2c-1.6,0.5-0.8,2.9,0.8,2.4l3.2-1.1
		l2.5,1.7l-1,4.1c-0.4,1.6,2,2.2,2.5,0.6L32,48l4-2.3v12.8c0,1.7,2.5,1.7,2.5,0v-7l4.2,4.1c1.2,1.2,3-0.6,1.8-1.8l-6-5.9v-4.1
		l4.3-7.4l3.1,1.5l-1.1,5.3c-0.3,1.6,2.2,2.1,2.5,0.5l0.8-4l2.1,2.1c1.2,1.2,3-0.6,1.8-1.8l-3.8-3.7C47.7,36,45.5,35,43.5,34v-6.7
		C43.5,25.6,41,25.6,41,27.3z"/>
</g>
</svg>
