<?xml version="1.0" encoding="utf-8"?>
<!-- Generator: Adobe Illustrator 24.1.2, SVG Export Plug-In . SVG Version: 6.00 Build 0)  -->
<svg version="1.1" id="Calque_1" xmlns="http://www.w3.org/2000/svg" xmlns:xlink="http://www.w3.org/1999/xlink" x="0px" y="0px"
	 viewBox="0 0 77 72" style="enable-background:new 0 0 77 72;" xml:space="preserve">
<style type="text/css">
	.st0{fill:#307BC4;}
</style>
<g id="XMLID_17705_">
	<path id="XMLID_17711_" class="st0" d="M21.6,52.3h8.8v4.6h-7.9c-0.7,0-1.2,0.6-1.2,1.2v4.3c0,0.7,0.6,1.2,1.2,1.2h32.6
		c0.7,0,1.2-0.6,1.2-1.2v-4.3c0-0.7-0.6-1.2-1.2-1.2h-7.9v-4.6H56c4.8,0,8.7-3.9,8.7-8.7V16.7c0-4.8-3.9-8.7-8.7-8.7H21.6
		c-4.8,0-8.7,3.9-8.7,8.7v26.9C12.9,48.4,16.8,52.3,21.6,52.3z M15.4,16.7c0-3.5,2.8-6.3,6.3-6.3H56c3.5,0,6.3,2.8,6.3,6.3v26.9
		c0,3.5-2.8,6.3-6.3,6.3H21.6c-3.5,0-6.3-2.8-6.3-6.3V16.7z M53.9,61.2H23.8v-1.8h30.2V61.2z M32.9,56.9v-4.6h11.8v4.6H32.9z"/>
	<path id="XMLID_17706_" class="st0" d="M21.3,31.8v4.7c0,4.8,3.9,8.7,8.7,8.7h17.6c4.8,0,8.7-3.9,8.7-8.7v-4.6
		c0.3-0.2,0.5-0.5,0.5-0.8c0-0.4-0.2-0.7-0.5-0.8v-6.4c0-4.8-3.9-8.7-8.7-8.7H30c-4.8,0-8.7,3.9-8.7,8.7v6.5
		c-0.2,0.2-0.4,0.5-0.4,0.8C20.9,31.4,21.1,31.7,21.3,31.8z M30,17.6h17.6c3.5,0,6.3,2.8,6.3,6.3v6.3h-4.7l-1.7-5.7
		c-0.1-0.4-0.5-0.7-0.9-0.7c-0.4,0-0.8,0.3-1,0.7l-3,8.8l-3.2-11.7c-0.1-0.4-0.4-0.7-0.8-0.7c-0.4-0.1-0.8,0.1-1,0.5l-5.3,8.8h-8.7
		v-6.3C23.8,20.4,26.6,17.6,30,17.6z M47.6,42.8H30c-3.5,0-6.3-2.8-6.3-6.3v-4.4H33c0.3,0,0.7-0.2,0.8-0.5l4.4-7.3l3.4,12.5
		c0.1,0.4,0.5,0.7,0.9,0.7h0c0.4,0,0.8-0.3,0.9-0.7l3.1-8.9l1,3.4c0.1,0.4,0.5,0.7,0.9,0.7h5.4v4.4C53.9,39.9,51.1,42.8,47.6,42.8z
		 M55.9,31.6h-7.4c-0.2,0-0.4-0.1-0.5-0.4l-1.4-4.9L43,36.7C43,36.9,42.8,37,42.6,37v0.2l0,0l0,0l0-0.2c-0.2,0-0.4-0.2-0.5-0.4
		L38.4,23l-5,8.3c-0.1,0.1-0.3,0.2-0.4,0.2H21.9c-0.3,0-0.5-0.2-0.5-0.5c0-0.3,0.2-0.5,0.5-0.5h10.8l5.4-9c0.1-0.2,0.3-0.3,0.5-0.2
		c0.2,0,0.4,0.2,0.4,0.4l3.6,13.2l3.5-10.3c0.1-0.2,0.3-0.3,0.5-0.3c0.2,0,0.4,0.1,0.5,0.4l1.8,6h7c0.3,0,0.5,0.2,0.5,0.5
		C56.4,31.3,56.2,31.6,55.9,31.6z"/>
</g>
</svg>
