<?xml version="1.0" encoding="utf-8"?>
<!-- Generator: Adobe Illustrator 24.1.2, SVG Export Plug-In . SVG Version: 6.00 Build 0)  -->
<svg version="1.1" id="Calque_1" xmlns="http://www.w3.org/2000/svg" xmlns:xlink="http://www.w3.org/1999/xlink" x="0px" y="0px"
	 viewBox="0 0 77 72" style="enable-background:new 0 0 77 72;" xml:space="preserve">
<style type="text/css">
	.st0{fill:#307BC4;}
	.st1{fill:#FFFFFF;}
	.st2{fill-rule:evenodd;clip-rule:evenodd;fill:#307BC4;}
	.st3{fill:#E2E2E2;}
</style>
<path id="Tracé_32" class="st2" d="M45.4,26.5c-0.1-1.6-0.8-3.1-2-4.1c-2.9-2.1-6.8-2.1-9.8,0c-1.4,1.2-1.8,5.5-1.8,7
	c0,0.9-0.4,1.8-1.2,2.3c-1.7,1.3-4.1,1.3-5.9,0c-0.8-0.5-1.2-1.4-1.2-2.3c0-1.8,0.2-6.3,1-7.8c0.7-1.5,1.8-2.9,3.1-3.9
	c1.4-1.3,3.1-2.2,4.9-2.7c1.9-0.6,3.9-1,5.9-1c2,0,4,0.4,5.9,1c1.7,0.6,3.3,1.5,4.7,2.7c1.4,1,2.4,2.4,3.1,3.9
	c0.8,1.5,1.2,3.2,1.2,4.9c0,0.9-0.4,1.8-1.2,2.3c-0.7,0.7-1.7,1-2.7,1c-1.1,0.1-2.1-0.3-2.9-1C45.8,28.3,45.4,27.4,45.4,26.5
	L45.4,26.5z"/>
<path id="Tracé_33" class="st2" d="M38.2,1.1c3.9,0,7.8,0.6,11.5,1.8c3.5,1.2,6.7,3.1,9.6,5.5c2.7,2.1,4.9,4.8,6.4,7.8
	c1.5,3,2.4,6.4,2.3,9.8c0,3-0.6,5.9-1.7,8.6c-0.2,0.2-0.4,0.4-0.4,0.6c-0.8,1.2-1.6,2.4-2.4,3.3c-0.8,1-1.6,2-2.3,2.9
	c-0.7,1-1.5,1.9-2.3,2.7c-0.2,0.2-0.4,0.4-0.6,0.4c-0.2,0.2-0.4,0.5-0.6,0.8c-0.8,0.7-1.6,1.5-2.2,2.3c-0.6,0.6-0.8,1.8-0.6,3.3
	c0,3.1,0.2,5.5,0,7c0,1.2-0.1,2.4-0.4,3.5c-0.5,2.9-2.3,5.5-4.9,7C29.8,81,50.3,40.6,52.8,37.2c0.6-0.8,1.2-1.4,1.8-2.2
	c0.4-0.8,1-1.4,1.4-2.1c0.5-0.5,1-1.1,1.4-1.8c0.4-0.8,0.6-1.7,0.8-2.5c0.2-0.9,0.2-1.8,0.2-2.7c0.1-2.3-0.5-4.6-1.6-6.6
	c-1.1-2-2.5-3.8-4.3-5.3c-1.9-1.6-4.1-2.8-6.4-3.5c-2.5-0.9-5.1-1.4-7.8-1.4c-2.7-0.1-5.4,0.4-8,1.4c-2.3,0.8-4.5,2-6.4,3.5
	c-1.7,1.5-3.1,3.3-4.3,5.3c-1,2.1-0.4-1.2-0.4,1c0,1.1-0.5,2.2-1.4,2.9c-2.1,1.6-4.9,1.6-7,0c-0.9-0.7-1.4-1.8-1.4-2.9
	c0-3.3-0.4-1,1.2-4.1c1.6-3,3.8-5.7,6.4-7.8C19.7,6,23,4.1,26.5,2.9C30.3,1.7,34.2,1.1,38.2,1.1L38.2,1.1z"/>
</svg>
