<?xml version="1.0" encoding="utf-8"?>
<!-- Generator: Adobe Illustrator 24.1.2, SVG Export Plug-In . SVG Version: 6.00 Build 0)  -->
<svg version="1.1" id="Calque_1" xmlns="http://www.w3.org/2000/svg" xmlns:xlink="http://www.w3.org/1999/xlink" x="0px" y="0px"
	 viewBox="0 0 77 72" style="enable-background:new 0 0 77 72;" xml:space="preserve">
<style type="text/css">
	.st0{fill:#307BC4;}
</style>
<g id="XMLID_17607_">
	<path id="XMLID_17611_" class="st0" d="M52.8,16.9v-2.6c0-3.7-3.4-6.7-7.6-6.7H31.9c-4.2,0-7.6,3-7.6,6.7v2.6H16
		c-3.6,0-6.6,2.9-6.6,6.6v30.1c0,3.6,2.9,6.6,6.6,6.6H61c3.6,0,6.6-2.9,6.6-6.6V23.5c0-3.6-2.9-6.6-6.6-6.6H52.8z M64.9,53.6
		c0,2.1-1.7,3.9-3.9,3.9H16c-2.1,0-3.9-1.7-3.9-3.9V23.5c0-2.1,1.7-3.9,3.9-3.9H61c2.1,0,3.9,1.7,3.9,3.9V53.6z M31.9,10.3h13.3
		c2.7,0,4.9,1.8,4.9,3.9v2.6h-4v-1.1c0-2.2-2-3.9-4.4-3.9h-6.5c-2.4,0-4.4,1.8-4.4,3.9v1.1h-4v-2.6C26.9,12.1,29.1,10.3,31.9,10.3z
		 M43.4,16.9h-9.9v-1.1c0-0.7,0.8-1.2,1.7-1.2h6.5c0.9,0,1.7,0.6,1.7,1.2V16.9z"/>
	<path id="XMLID_17608_" class="st0" d="M49.3,34.3h-6v-6c0-0.4-0.4-0.8-0.8-0.8h-6.9c-0.4,0-0.8,0.4-0.8,0.8v6h-6
		c-0.4,0-0.8,0.4-0.8,0.8V42c0,0.4,0.4,0.8,0.8,0.8h6v6c0,0.4,0.4,0.8,0.8,0.8h6.9c0.4,0,0.8-0.4,0.8-0.8v-6h6
		c0.4,0,0.8-0.4,0.8-0.8v-6.9C50.1,34.6,49.7,34.3,49.3,34.3z M48.5,41.2h-6c-0.4,0-0.8,0.4-0.8,0.8v6h-5.3v-6
		c0-0.4-0.4-0.8-0.8-0.8h-6v-5.3h6c0.4,0,0.8-0.4,0.8-0.8v-6h5.3v6c0,0.4,0.4,0.8,0.8,0.8h6V41.2z"/>
</g>
</svg>
