<?xml version="1.0" encoding="utf-8"?>
<!-- Generator: Adobe Illustrator 24.1.2, SVG Export Plug-In . SVG Version: 6.00 Build 0)  -->
<svg version="1.1" id="Calque_1" xmlns="http://www.w3.org/2000/svg" xmlns:xlink="http://www.w3.org/1999/xlink" x="0px" y="0px"
	 viewBox="0 0 77 72" style="enable-background:new 0 0 77 72;" xml:space="preserve">
<style type="text/css">
	.st0{fill:#307BC4;}
</style>
<g id="XMLID_18018_">
	<path id="XMLID_18043_" class="st0" d="M63.2,34.1H44.6V10.7H17.9v47.7H4.5v1.8h68.6v-1.8h-9.9V34.1z M42.8,57.6H19.7V12.4h23.1
		V57.6z M61.4,57.6H44.9V35.9h16.5V57.6z"/>
	<path id="XMLID_18040_" class="st0" d="M30,17.4h-5.7v4.9H30V17.4z M29.1,21.4h-3.9v-3.1h3.9V21.4z"/>
	<path id="XMLID_18037_" class="st0" d="M38.2,17.4h-5.7v4.9h5.7V17.4z M37.3,21.4h-3.9v-3.1h3.9V21.4z"/>
	<path id="XMLID_18034_" class="st0" d="M38.2,23.8h-5.7v4.9h5.7V23.8z M37.3,27.8h-3.9v-3.1h3.9V27.8z"/>
	<path id="XMLID_18031_" class="st0" d="M38.2,35.1h-5.7V40h5.7V35.1z M37.3,39.1h-3.9V36h3.9V39.1z"/>
	<path id="XMLID_18028_" class="st0" d="M38.2,46.3h-5.7v4.9h5.7V46.3z M37.3,50.4h-3.9v-3.1h3.9V50.4z"/>
	<path id="XMLID_18025_" class="st0" d="M30,46.3h-5.7v4.9H30V46.3z M29.1,50.4h-3.9v-3.1h3.9V50.4z"/>
	<path id="XMLID_18022_" class="st0" d="M52.8,37.9h-5.7v4.9h5.7V37.9z M51.9,41.9H48v-3.1h3.9V41.9z"/>
	<path id="XMLID_18019_" class="st0" d="M60,45.8h-5.7v4.9H60V45.8z M59.1,49.8h-3.9v-3.1h3.9V49.8z"/>
</g>
</svg>
