<?xml version="1.0" encoding="utf-8"?>
<!-- Generator: Adobe Illustrator 24.1.2, SVG Export Plug-In . SVG Version: 6.00 Build 0)  -->
<svg version="1.1" id="Calque_1" xmlns="http://www.w3.org/2000/svg" xmlns:xlink="http://www.w3.org/1999/xlink" x="0px" y="0px"
	 viewBox="0 0 77 72" style="enable-background:new 0 0 77 72;" xml:space="preserve">
<style type="text/css">
	.st0{fill:#307BC4;}
</style>
<g id="XMLID_17627_">
	<path id="XMLID_17631_" class="st0" d="M46.9,4.1c-3,0-5.8,1.1-8.4,2.4c-2.6-1.3-5.3-2.4-8.4-2.4c-10.9,0-19.7,8.9-19.7,19.7
		c0,1.2,1.2,4.7,3.9,11.6c0.7,1.7,1.3,3.4,1.4,3.9c0.2,1,0.4,2.4,0.6,4.1c0.8,6.2,2.1,15.5,5.9,22.5c0.2,0.6,0.6,1.2,1.3,1.5
		c0.3,0.2,0.7,0.2,1.1,0.2c0.9,0,1.8-0.4,3-1.1c1.5-1,1.8-3.5,2.2-7.7c0.9-8.4,2.2-15.9,8.5-16.4c6.4,0.5,7.7,8.1,8.5,16.4
		c0.4,4.2,0.7,6.7,2.2,7.7c1.7,1.1,3,1.3,4.1,0.8c0.7-0.3,1.2-1,1.3-1.5c3.6-6.6,5.1-14.8,6.2-21.4c0.3-1.6,0.5-3.1,0.8-4.4
		c0.5-1.3,5-13.4,5-16.2C66.6,13,57.8,4.1,46.9,4.1z M58.7,39.4c-0.3,1.4-0.6,3-0.9,4.6c-1.1,6.5-2.6,14.5-6,20.7c0,0,0,0,0,0
		c-0.2-0.1-0.6-0.2-1.1-0.5c-0.4-0.6-0.7-3.5-0.9-5.5c-0.8-7.3-1.9-18.4-11.3-19.1c-0.1,0-0.1,0-0.2,0C28.8,40.2,27.7,51.3,27,58.7
		c-0.2,2.1-0.5,4.9-0.9,5.5c-0.5,0.3-0.9,0.5-1.1,0.5c0,0,0,0,0,0C21.3,58.1,20,49.1,19.2,43c-0.2-1.7-0.4-3.2-0.7-4.3
		c0,0,0-0.1,0-0.1c-0.2-0.6-0.7-1.9-1.5-4.2c-1.2-3.1-3.6-9.5-3.7-10.6C13.3,14.6,20.9,7,30.1,7c2.7,0,5.3,1.2,7.7,2.4
		c0.4,0.2,0.9,0.2,1.3,0c2.4-1.2,5-2.4,7.7-2.4c9.3,0,16.8,7.5,16.8,16.8c0,1.8-3.5,11.6-4.9,15.3C58.8,39.2,58.8,39.3,58.7,39.4z"
		/>
	<path id="XMLID_17628_" class="st0" d="M52.5,15.1c-1.5-0.4-3.2-0.2-4.6,0.5c-1.4,0.8-2.4,2.1-2.8,3.6c-0.4,1.5-0.2,3.2,0.5,4.6
		c1.1,2,3.1,3.1,5.3,3.1c1,0,2-0.2,2.9-0.8v0c1.4-0.8,2.4-2.1,2.8-3.6c0.4-1.5,0.2-3.2-0.5-4.6C55.4,16.6,54.1,15.6,52.5,15.1z
		 M47.7,22.7c-0.5-0.9-0.6-1.8-0.3-2.8c0.3-0.9,0.9-1.7,1.7-2.2c0.6-0.3,1.2-0.5,1.8-0.5c0.3,0,0.7,0,1,0.1c0.9,0.3,1.7,0.9,2.2,1.7
		c1,1.8,0.4,4-1.4,5C50.9,25.1,48.7,24.5,47.7,22.7z"/>
</g>
</svg>
