<?xml version="1.0" encoding="utf-8"?>
<!-- Generator: Adobe Illustrator 24.1.2, SVG Export Plug-In . SVG Version: 6.00 Build 0)  -->
<svg version="1.1" id="Calque_1" xmlns="http://www.w3.org/2000/svg" xmlns:xlink="http://www.w3.org/1999/xlink" x="0px" y="0px"
	 viewBox="0 0 77 72" style="enable-background:new 0 0 77 72;" xml:space="preserve">
<style type="text/css">
	.st0{fill:#307BC4;}
	.st1{fill:#FFFFFF;}
	.st2{fill-rule:evenodd;clip-rule:evenodd;fill:#307BC4;}
	.st3{fill:#E2E2E2;}
</style>
<g>
	<path class="st0" d="M16.4,53.1c5-3,10.3,4.7,15.1,6.5c28.2,12.8,37.9-12,39-19.6c1.2-8.2,2.5-26.9-14.3-32.2
		c-13.2-4.2-18,5.5-18,5.5c-1.1,1.6-2.1,2.1-3.5,0c-1.1-1.7-0.6-6.1-0.3-7.8c0.1-0.4-0.2-0.7-0.6-0.7h-7.9c-0.3,0-0.5,0.2-0.6,0.4
		c-0.7,1.8-3.1,9.4,3.4,18.1c7.4,9.9,8.8,7.8,9.9,13.8c1.2,5.9-7.2,12.1-12.7,9.6c-2.8-1.3-9.2-4.8-15.9,1.4C3.5,54,9.6,65,10.8,67
		c0.1,0.2,0.3,0.3,0.5,0.3h6.9c0.5,0,0.8-0.6,0.5-1C15.6,62.5,13.3,55,16.4,53.1z M65.2,35c0,2.3-1.9,4.2-4.2,4.2
		c-2.3,0-4.2-1.9-4.2-4.2c0-2.3,1.9-4.2,4.2-4.2C63.3,30.8,65.2,32.7,65.2,35z M57.8,12.4c1.4,0,2.5,1.1,2.5,2.5
		c0,1.4-1.1,2.5-2.5,2.5s-2.5-1.1-2.5-2.5C55.3,13.5,56.4,12.4,57.8,12.4z M48.3,22c0.9,0,1.7,0.7,1.7,1.7c0,0.9-0.7,1.7-1.7,1.7
		c-0.9,0-1.7-0.8-1.7-1.7C46.6,22.8,47.4,22,48.3,22z M28.9,51.4c0-0.2,0.1-0.3,0.2-0.5c0.4-0.9,1.3-1.7,2.5-1.9
		c7.3-1.5,11.3-8.2,10.3-13.2c-0.2-1.2-0.5-2.2-0.8-3c0.9-0.9,2.4-1.1,3.2-1c5.3,0.8,8.8,6,12.6,9.4c2.8,2.5,6,4,9.3,4.4
		c-2.9,6.4-8.9,14.1-19.4,14.1c-4.1,0-8.7-1.1-13.6-3.4l-0.1,0l-0.1,0c-0.9-0.3-2-1.1-2.8-1.6C29,54,28.6,52.6,28.9,51.4z"/>
</g>
</svg>
