<?xml version="1.0" encoding="utf-8"?>
<!-- Generator: Adobe Illustrator 24.1.2, SVG Export Plug-In . SVG Version: 6.00 Build 0)  -->
<svg version="1.1" id="Calque_1" xmlns="http://www.w3.org/2000/svg" xmlns:xlink="http://www.w3.org/1999/xlink" x="0px" y="0px"
	 viewBox="0 0 77 72" style="enable-background:new 0 0 77 72;" xml:space="preserve">
<style type="text/css">
	.st0{fill:#307BC4;}
	.st1{fill:#FFFFFF;}
	.st2{fill-rule:evenodd;clip-rule:evenodd;fill:#307BC4;}
	.st3{fill:#E2E2E2;}
</style>
<g>
	<path class="st1" d="M5.8,36c3.3,3.1,10.5,9,19.6,12.4c-3.2-3.2-5.1-7.6-5.1-12.4c0-4.8,2-9.2,5.1-12.4C16.3,27,9.1,32.9,5.8,36z"
		/>
	<path class="st1" d="M49.5,49.2C59.6,46,67.6,39.3,71.2,36c-3.6-3.3-11.6-10-21.7-13.2c3.6,3.2,5.9,7.9,5.9,13.2
		C55.4,41.2,53.1,45.9,49.5,49.2z"/>
	<path class="st0" d="M1.9,35.8v0.3c1.7,1.8,17.4,17.6,36.6,17.6c19.2,0,34.9-15.8,36.6-17.6v-0.3c-1.7-1.8-17.4-17.6-36.6-17.6
		C19.3,18.2,3.6,34.1,1.9,35.8z M5.8,36c3.3-3.1,10.5-9,19.5-12.4c-3.2,3.2-5.1,7.6-5.1,12.4c0,4.8,2,9.2,5.1,12.4
		C16.3,45,9.1,39.1,5.8,36z M71.2,36c-3.6,3.3-11.7,10-21.8,13.2c3.6-3.2,6-7.9,6-13.2c0-5.2-2.3-9.9-5.9-13.2
		C59.6,26,67.7,32.7,71.2,36z M53.2,36c0,8.5-6.9,15.4-15.4,15.4c-8.5,0-15.4-6.9-15.4-15.4c0-8.5,6.9-15.3,15.4-15.3
		C46.3,20.6,53.2,27.5,53.2,36z"/>
	<path class="st0" d="M23.6,36c0,7.9,6.4,14.2,14.2,14.2C45.7,50.2,52,43.9,52,36c0-7.9-6.4-14.2-14.2-14.2
		C30,21.8,23.6,28.1,23.6,36z M31.7,34.1c-2.5,0-4.5-1.9-4.5-4.2c0-2.3,2-4.2,4.5-4.2c2.5,0,4.5,1.9,4.5,4.2
		C36.2,32.2,34.2,34.1,31.7,34.1z M48.6,40.5c0,3.5-2.8,6.3-6.3,6.3c-3.5,0-6.3-2.8-6.3-6.3s2.8-6.3,6.3-6.3
		C45.8,34.1,48.6,37,48.6,40.5z"/>
</g>
</svg>
