<svg width="90" height="90" viewBox="0 0 90 90" fill="none" xmlns="http://www.w3.org/2000/svg">
<g filter="url(#filter0_b_32_278)">
<circle cx="45" cy="45" r="45" fill="white"/>
<circle cx="45" cy="45" r="44.5" stroke="url(#paint0_linear_32_278)"/>
</g>
<path d="M45 72C44.2312 72 43.4901 71.7159 42.9125 71.1999C40.731 69.2544 38.6278 67.4262 36.7722 65.8134L36.7627 65.805C31.3224 61.0766 26.6245 56.9931 23.3558 52.9705C19.7019 48.4736 18 44.2099 18 39.552C18 35.0265 19.5215 30.8514 22.2838 27.7953C25.0792 24.7031 28.9148 23 33.0853 23C36.2024 23 39.0571 24.0051 41.5698 25.9872C42.8379 26.9877 43.9873 28.2121 45 29.6404C46.0131 28.2121 47.1621 26.9877 48.4306 25.9872C50.9433 24.0051 53.798 23 56.9151 23C61.0852 23 64.9212 24.7031 67.7166 27.7953C70.4789 30.8514 72 35.0265 72 39.552C72 44.2099 70.2985 48.4736 66.6446 52.9701C63.3759 56.9931 58.6784 61.0761 53.2389 65.8042C51.38 67.4194 49.2735 69.2507 47.0871 71.2008C46.5099 71.7159 45.7684 72 45 72ZM33.0853 26.2263C29.8088 26.2263 26.7988 27.56 24.6091 29.982C22.3868 32.4406 21.1628 35.8391 21.1628 39.552C21.1628 43.4695 22.5904 46.9731 25.7911 50.912C28.8847 54.7194 33.4862 58.7188 38.814 63.3498L38.8239 63.3582C40.6865 64.9772 42.7979 66.8127 44.9955 68.7725C47.2062 66.8089 49.3209 64.9705 51.1872 63.349C56.5146 58.718 61.1157 54.7194 64.2093 50.912C67.4096 46.9731 68.8372 43.4695 68.8372 39.552C68.8372 35.8391 67.6132 32.4406 65.3909 29.982C63.2016 27.56 60.1912 26.2263 56.9151 26.2263C54.5148 26.2263 52.3111 27.0045 50.3653 28.539C48.6313 29.9072 47.4233 31.6367 46.7151 32.8469C46.3509 33.4692 45.7099 33.8407 45 33.8407C44.2901 33.8407 43.6491 33.4692 43.2849 32.8469C42.5771 31.6367 41.3692 29.9072 39.6347 28.539C37.6889 27.0045 35.4852 26.2263 33.0853 26.2263Z" fill="#307BC4"/>
<defs>
<filter id="filter0_b_32_278" x="-43" y="-43" width="176" height="176" filterUnits="userSpaceOnUse" color-interpolation-filters="sRGB">
<feFlood flood-opacity="0" result="BackgroundImageFix"/>
<feGaussianBlur in="BackgroundImageFix" stdDeviation="21.5"/>
<feComposite in2="SourceAlpha" operator="in" result="effect1_backgroundBlur_32_278"/>
<feBlend mode="normal" in="SourceGraphic" in2="effect1_backgroundBlur_32_278" result="shape"/>
</filter>
<linearGradient id="paint0_linear_32_278" x1="45" y1="0" x2="45" y2="90" gradientUnits="userSpaceOnUse">
<stop stop-color="white"/>
<stop offset="1" stop-color="white" stop-opacity="0"/>
</linearGradient>
</defs>
</svg>
