<svg width="328" height="266" viewBox="0 0 328 266" fill="none" xmlns="http://www.w3.org/2000/svg">
<g filter="url(#filter0_b_32_277)">
<rect width="328" height="266" rx="50" fill="white"/>
<rect x="0.5" y="0.5" width="327" height="265" rx="49.5" stroke="url(#paint0_linear_32_277)"/>
</g>
<path d="M242.657 209.993C242.466 209.993 242.305 209.927 242.173 209.795C242.041 209.663 241.975 209.502 241.975 209.311C241.975 209.12 242.041 208.959 242.173 208.827C242.305 208.695 242.466 208.629 242.657 208.629C242.84 208.629 242.994 208.695 243.119 208.827C243.251 208.959 243.317 209.12 243.317 209.311C243.317 209.502 243.251 209.663 243.119 209.795C242.994 209.927 242.84 209.993 242.657 209.993ZM243.141 210.972V217H242.14V210.972H243.141ZM247.784 210.862C248.517 210.862 249.111 211.086 249.566 211.533C250.021 211.973 250.248 212.611 250.248 213.447V217H249.258V213.59C249.258 212.989 249.108 212.53 248.807 212.215C248.506 211.892 248.096 211.731 247.575 211.731C247.047 211.731 246.625 211.896 246.31 212.226C246.002 212.556 245.848 213.036 245.848 213.667V217H244.847V210.972H245.848V211.83C246.046 211.522 246.314 211.284 246.651 211.115C246.996 210.946 247.373 210.862 247.784 210.862ZM251.509 213.975C251.509 213.352 251.634 212.809 251.883 212.347C252.132 211.878 252.477 211.515 252.917 211.258C253.364 211.001 253.874 210.873 254.446 210.873C255.187 210.873 255.795 211.053 256.272 211.412C256.756 211.771 257.075 212.27 257.229 212.908H256.151C256.048 212.541 255.847 212.252 255.546 212.039C255.253 211.826 254.886 211.72 254.446 211.72C253.874 211.72 253.412 211.918 253.06 212.314C252.708 212.703 252.532 213.256 252.532 213.975C252.532 214.701 252.708 215.262 253.06 215.658C253.412 216.054 253.874 216.252 254.446 216.252C254.886 216.252 255.253 216.149 255.546 215.944C255.839 215.739 256.041 215.445 256.151 215.064H257.229C257.068 215.68 256.745 216.175 256.261 216.549C255.777 216.916 255.172 217.099 254.446 217.099C253.874 217.099 253.364 216.971 252.917 216.714C252.477 216.457 252.132 216.094 251.883 215.625C251.634 215.156 251.509 214.606 251.509 213.975ZM259.566 211.951C259.742 211.606 259.991 211.339 260.314 211.148C260.644 210.957 261.043 210.862 261.513 210.862V211.896H261.249C260.127 211.896 259.566 212.505 259.566 213.722V217H258.565V210.972H259.566V211.951ZM268.168 213.755C268.168 213.946 268.157 214.147 268.135 214.36H263.317C263.354 214.954 263.556 215.42 263.922 215.757C264.296 216.087 264.747 216.252 265.275 216.252C265.708 216.252 266.067 216.153 266.353 215.955C266.647 215.75 266.852 215.478 266.969 215.141H268.047C267.886 215.72 267.563 216.193 267.079 216.56C266.595 216.919 265.994 217.099 265.275 217.099C264.703 217.099 264.19 216.971 263.735 216.714C263.288 216.457 262.936 216.094 262.679 215.625C262.423 215.148 262.294 214.598 262.294 213.975C262.294 213.352 262.419 212.805 262.668 212.336C262.918 211.867 263.266 211.507 263.713 211.258C264.168 211.001 264.689 210.873 265.275 210.873C265.847 210.873 266.353 210.998 266.793 211.247C267.233 211.496 267.571 211.841 267.805 212.281C268.047 212.714 268.168 213.205 268.168 213.755ZM267.134 213.546C267.134 213.165 267.05 212.838 266.881 212.567C266.713 212.288 266.482 212.079 266.188 211.94C265.902 211.793 265.583 211.72 265.231 211.72C264.725 211.72 264.293 211.881 263.933 212.204C263.581 212.527 263.38 212.974 263.328 213.546H267.134ZM269.116 213.964C269.116 213.348 269.24 212.809 269.49 212.347C269.739 211.878 270.08 211.515 270.513 211.258C270.953 211.001 271.44 210.873 271.976 210.873C272.504 210.873 272.962 210.987 273.351 211.214C273.739 211.441 274.029 211.727 274.22 212.072V210.972H275.232V217H274.22V215.878C274.022 216.23 273.725 216.523 273.329 216.758C272.94 216.985 272.485 217.099 271.965 217.099C271.429 217.099 270.945 216.967 270.513 216.703C270.08 216.439 269.739 216.069 269.49 215.592C269.24 215.115 269.116 214.573 269.116 213.964ZM274.22 213.975C274.22 213.52 274.128 213.124 273.945 212.787C273.761 212.45 273.512 212.193 273.197 212.017C272.889 211.834 272.548 211.742 272.174 211.742C271.8 211.742 271.459 211.83 271.151 212.006C270.843 212.182 270.597 212.439 270.414 212.776C270.23 213.113 270.139 213.509 270.139 213.964C270.139 214.426 270.23 214.829 270.414 215.174C270.597 215.511 270.843 215.772 271.151 215.955C271.459 216.131 271.8 216.219 272.174 216.219C272.548 216.219 272.889 216.131 273.197 215.955C273.512 215.772 273.761 215.511 273.945 215.174C274.128 214.829 274.22 214.43 274.22 213.975ZM279.057 217.099C278.595 217.099 278.181 217.022 277.814 216.868C277.448 216.707 277.158 216.487 276.945 216.208C276.733 215.922 276.615 215.596 276.593 215.229H277.627C277.657 215.53 277.796 215.775 278.045 215.966C278.302 216.157 278.636 216.252 279.046 216.252C279.428 216.252 279.728 216.168 279.948 215.999C280.168 215.83 280.278 215.618 280.278 215.361C280.278 215.097 280.161 214.903 279.926 214.778C279.692 214.646 279.329 214.518 278.837 214.393C278.39 214.276 278.023 214.158 277.737 214.041C277.459 213.916 277.217 213.737 277.011 213.502C276.813 213.26 276.714 212.945 276.714 212.556C276.714 212.248 276.806 211.966 276.989 211.709C277.173 211.452 277.433 211.251 277.77 211.104C278.108 210.95 278.493 210.873 278.925 210.873C279.593 210.873 280.132 211.042 280.542 211.379C280.953 211.716 281.173 212.178 281.202 212.765H280.201C280.179 212.45 280.051 212.197 279.816 212.006C279.589 211.815 279.281 211.72 278.892 211.72C278.533 211.72 278.247 211.797 278.034 211.951C277.822 212.105 277.715 212.307 277.715 212.556C277.715 212.754 277.778 212.919 277.902 213.051C278.034 213.176 278.196 213.278 278.386 213.359C278.584 213.432 278.856 213.517 279.2 213.612C279.633 213.729 279.985 213.847 280.256 213.964C280.528 214.074 280.759 214.243 280.949 214.47C281.147 214.697 281.25 214.994 281.257 215.361C281.257 215.691 281.166 215.988 280.982 216.252C280.799 216.516 280.539 216.725 280.201 216.879C279.871 217.026 279.49 217.099 279.057 217.099ZM283.187 209.993C282.997 209.993 282.835 209.927 282.703 209.795C282.571 209.663 282.505 209.502 282.505 209.311C282.505 209.12 282.571 208.959 282.703 208.827C282.835 208.695 282.997 208.629 283.187 208.629C283.371 208.629 283.525 208.695 283.649 208.827C283.781 208.959 283.847 209.12 283.847 209.311C283.847 209.502 283.781 209.663 283.649 209.795C283.525 209.927 283.371 209.993 283.187 209.993ZM283.671 210.972V217H282.67V210.972H283.671ZM288.314 210.862C289.048 210.862 289.642 211.086 290.096 211.533C290.551 211.973 290.778 212.611 290.778 213.447V217H289.788V213.59C289.788 212.989 289.638 212.53 289.337 212.215C289.037 211.892 288.626 211.731 288.105 211.731C287.577 211.731 287.156 211.896 286.84 212.226C286.532 212.556 286.378 213.036 286.378 213.667V217H285.377V210.972H286.378V211.83C286.576 211.522 286.844 211.284 287.181 211.115C287.526 210.946 287.904 210.862 288.314 210.862ZM294.899 210.873C295.42 210.873 295.875 210.987 296.263 211.214C296.659 211.441 296.953 211.727 297.143 212.072V210.972H298.155V217.132C298.155 217.682 298.038 218.17 297.803 218.595C297.569 219.028 297.231 219.365 296.791 219.607C296.359 219.849 295.853 219.97 295.273 219.97C294.481 219.97 293.821 219.783 293.293 219.409C292.765 219.035 292.454 218.525 292.358 217.88H293.348C293.458 218.247 293.686 218.54 294.03 218.76C294.375 218.987 294.789 219.101 295.273 219.101C295.823 219.101 296.271 218.929 296.615 218.584C296.967 218.239 297.143 217.755 297.143 217.132V215.867C296.945 216.219 296.652 216.512 296.263 216.747C295.875 216.982 295.42 217.099 294.899 217.099C294.364 217.099 293.876 216.967 293.436 216.703C293.004 216.439 292.663 216.069 292.413 215.592C292.164 215.115 292.039 214.573 292.039 213.964C292.039 213.348 292.164 212.809 292.413 212.347C292.663 211.878 293.004 211.515 293.436 211.258C293.876 211.001 294.364 210.873 294.899 210.873ZM297.143 213.975C297.143 213.52 297.052 213.124 296.868 212.787C296.685 212.45 296.436 212.193 296.12 212.017C295.812 211.834 295.471 211.742 295.097 211.742C294.723 211.742 294.382 211.83 294.074 212.006C293.766 212.182 293.521 212.439 293.337 212.776C293.154 213.113 293.062 213.509 293.062 213.964C293.062 214.426 293.154 214.829 293.337 215.174C293.521 215.511 293.766 215.772 294.074 215.955C294.382 216.131 294.723 216.219 295.097 216.219C295.471 216.219 295.812 216.131 296.12 215.955C296.436 215.772 296.685 215.511 296.868 215.174C297.052 214.829 297.143 214.43 297.143 213.975ZM247.747 227.755C247.747 227.946 247.736 228.147 247.714 228.36H242.896C242.933 228.954 243.135 229.42 243.501 229.757C243.875 230.087 244.326 230.252 244.854 230.252C245.287 230.252 245.646 230.153 245.932 229.955C246.226 229.75 246.431 229.478 246.548 229.141H247.626C247.465 229.72 247.142 230.193 246.658 230.56C246.174 230.919 245.573 231.099 244.854 231.099C244.282 231.099 243.769 230.971 243.314 230.714C242.867 230.457 242.515 230.094 242.258 229.625C242.002 229.148 241.873 228.598 241.873 227.975C241.873 227.352 241.998 226.805 242.247 226.336C242.497 225.867 242.845 225.507 243.292 225.258C243.747 225.001 244.268 224.873 244.854 224.873C245.426 224.873 245.932 224.998 246.372 225.247C246.812 225.496 247.15 225.841 247.384 226.281C247.626 226.714 247.747 227.205 247.747 227.755ZM246.713 227.546C246.713 227.165 246.629 226.838 246.46 226.567C246.292 226.288 246.061 226.079 245.767 225.94C245.481 225.793 245.162 225.72 244.81 225.72C244.304 225.72 243.872 225.881 243.512 226.204C243.16 226.527 242.959 226.974 242.907 227.546H246.713ZM251.313 230.076L253.183 224.972H254.25L251.885 231H250.719L248.354 224.972H249.432L251.313 230.076ZM260.735 227.755C260.735 227.946 260.724 228.147 260.702 228.36H255.884C255.92 228.954 256.122 229.42 256.489 229.757C256.863 230.087 257.314 230.252 257.842 230.252C258.274 230.252 258.634 230.153 258.92 229.955C259.213 229.75 259.418 229.478 259.536 229.141H260.614C260.452 229.72 260.13 230.193 259.646 230.56C259.162 230.919 258.56 231.099 257.842 231.099C257.27 231.099 256.756 230.971 256.302 230.714C255.854 230.457 255.502 230.094 255.246 229.625C254.989 229.148 254.861 228.598 254.861 227.975C254.861 227.352 254.985 226.805 255.235 226.336C255.484 225.867 255.832 225.507 256.28 225.258C256.734 225.001 257.255 224.873 257.842 224.873C258.414 224.873 258.92 224.998 259.36 225.247C259.8 225.496 260.137 225.841 260.372 226.281C260.614 226.714 260.735 227.205 260.735 227.755ZM259.701 227.546C259.701 227.165 259.616 226.838 259.448 226.567C259.279 226.288 259.048 226.079 258.755 225.94C258.469 225.793 258.15 225.72 257.798 225.72C257.292 225.72 256.859 225.881 256.5 226.204C256.148 226.527 255.946 226.974 255.895 227.546H259.701ZM263.057 225.951C263.233 225.606 263.482 225.339 263.805 225.148C264.135 224.957 264.535 224.862 265.004 224.862V225.896H264.74C263.618 225.896 263.057 226.505 263.057 227.722V231H262.056V224.972H263.057V225.951ZM271.352 224.972L267.722 233.838H266.688L267.876 230.934L265.445 224.972H266.556L268.448 229.856L270.318 224.972H271.352ZM280.482 224.972L276.852 233.838H275.818L277.006 230.934L274.575 224.972H275.686L277.578 229.856L279.448 224.972H280.482ZM286.989 227.755C286.989 227.946 286.978 228.147 286.956 228.36H282.138C282.174 228.954 282.376 229.42 282.743 229.757C283.117 230.087 283.568 230.252 284.096 230.252C284.528 230.252 284.888 230.153 285.174 229.955C285.467 229.75 285.672 229.478 285.79 229.141H286.868C286.706 229.72 286.384 230.193 285.9 230.56C285.416 230.919 284.814 231.099 284.096 231.099C283.524 231.099 283.01 230.971 282.556 230.714C282.108 230.457 281.756 230.094 281.5 229.625C281.243 229.148 281.115 228.598 281.115 227.975C281.115 227.352 281.239 226.805 281.489 226.336C281.738 225.867 282.086 225.507 282.534 225.258C282.988 225.001 283.509 224.873 284.096 224.873C284.668 224.873 285.174 224.998 285.614 225.247C286.054 225.496 286.391 225.841 286.626 226.281C286.868 226.714 286.989 227.205 286.989 227.755ZM285.955 227.546C285.955 227.165 285.87 226.838 285.702 226.567C285.533 226.288 285.302 226.079 285.009 225.94C284.723 225.793 284.404 225.72 284.052 225.72C283.546 225.72 283.113 225.881 282.754 226.204C282.402 226.527 282.2 226.974 282.149 227.546H285.955ZM287.936 227.964C287.936 227.348 288.061 226.809 288.31 226.347C288.559 225.878 288.9 225.515 289.333 225.258C289.773 225.001 290.261 224.873 290.796 224.873C291.324 224.873 291.782 224.987 292.171 225.214C292.56 225.441 292.849 225.727 293.04 226.072V224.972H294.052V231H293.04V229.878C292.842 230.23 292.545 230.523 292.149 230.758C291.76 230.985 291.306 231.099 290.785 231.099C290.25 231.099 289.766 230.967 289.333 230.703C288.9 230.439 288.559 230.069 288.31 229.592C288.061 229.115 287.936 228.573 287.936 227.964ZM293.04 227.975C293.04 227.52 292.948 227.124 292.765 226.787C292.582 226.45 292.332 226.193 292.017 226.017C291.709 225.834 291.368 225.742 290.994 225.742C290.62 225.742 290.279 225.83 289.971 226.006C289.663 226.182 289.417 226.439 289.234 226.776C289.051 227.113 288.959 227.509 288.959 227.964C288.959 228.426 289.051 228.829 289.234 229.174C289.417 229.511 289.663 229.772 289.971 229.955C290.279 230.131 290.62 230.219 290.994 230.219C291.368 230.219 291.709 230.131 292.017 229.955C292.332 229.772 292.582 229.511 292.765 229.174C292.948 228.829 293.04 228.43 293.04 227.975ZM296.744 225.951C296.92 225.606 297.17 225.339 297.492 225.148C297.822 224.957 298.222 224.862 298.691 224.862V225.896H298.427C297.305 225.896 296.744 226.505 296.744 227.722V231H295.743V224.972H296.744V225.951Z" fill="#274760"/>
<path d="M45.096 177.848V179.032H42.056V189H40.6V179.032H37.544V177.848H45.096ZM50.7123 189.144C49.8909 189.144 49.1443 188.957 48.4723 188.584C47.8109 188.211 47.2883 187.683 46.9043 187C46.5309 186.307 46.3443 185.507 46.3443 184.6C46.3443 183.704 46.5363 182.915 46.9203 182.232C47.3149 181.539 47.8483 181.011 48.5203 180.648C49.1923 180.275 49.9443 180.088 50.7763 180.088C51.6083 180.088 52.3603 180.275 53.0323 180.648C53.7043 181.011 54.2323 181.533 54.6163 182.216C55.0109 182.899 55.2083 183.693 55.2083 184.6C55.2083 185.507 55.0056 186.307 54.6003 187C54.2056 187.683 53.6669 188.211 52.9843 188.584C52.3016 188.957 51.5443 189.144 50.7123 189.144ZM50.7123 187.864C51.2349 187.864 51.7256 187.741 52.1843 187.496C52.6429 187.251 53.0109 186.883 53.2883 186.392C53.5763 185.901 53.7203 185.304 53.7203 184.6C53.7203 183.896 53.5816 183.299 53.3043 182.808C53.0269 182.317 52.6643 181.955 52.2163 181.72C51.7683 181.475 51.2829 181.352 50.7603 181.352C50.2269 181.352 49.7363 181.475 49.2883 181.72C48.8509 181.955 48.4989 182.317 48.2323 182.808C47.9656 183.299 47.8323 183.896 47.8323 184.6C47.8323 185.315 47.9603 185.917 48.2163 186.408C48.4829 186.899 48.8349 187.267 49.2723 187.512C49.7096 187.747 50.1896 187.864 50.7123 187.864ZM58.8986 181.432V186.6C58.8986 187.027 58.9893 187.331 59.1706 187.512C59.352 187.683 59.6666 187.768 60.1146 187.768H61.1866V189H59.8746C59.064 189 58.456 188.813 58.0506 188.44C57.6453 188.067 57.4426 187.453 57.4426 186.6V181.432H56.3066V180.232H57.4426V178.024H58.8986V180.232H61.1866V181.432H58.8986ZM62.4068 184.584C62.4068 183.688 62.5881 182.904 62.9508 182.232C63.3134 181.549 63.8094 181.021 64.4388 180.648C65.0788 180.275 65.7881 180.088 66.5668 180.088C67.3348 180.088 68.0014 180.253 68.5668 180.584C69.1321 180.915 69.5534 181.331 69.8308 181.832V180.232H71.3028V189H69.8308V187.368C69.5428 187.88 69.1108 188.307 68.5348 188.648C67.9694 188.979 67.3081 189.144 66.5508 189.144C65.7721 189.144 65.0681 188.952 64.4388 188.568C63.8094 188.184 63.3134 187.645 62.9508 186.952C62.5881 186.259 62.4068 185.469 62.4068 184.584ZM69.8308 184.6C69.8308 183.939 69.6974 183.363 69.4308 182.872C69.1641 182.381 68.8014 182.008 68.3428 181.752C67.8948 181.485 67.3988 181.352 66.8548 181.352C66.3108 181.352 65.8148 181.48 65.3668 181.736C64.9188 181.992 64.5614 182.365 64.2948 182.856C64.0281 183.347 63.8948 183.923 63.8948 184.584C63.8948 185.256 64.0281 185.843 64.2948 186.344C64.5614 186.835 64.9188 187.213 65.3668 187.48C65.8148 187.736 66.3108 187.864 66.8548 187.864C67.3988 187.864 67.8948 187.736 68.3428 187.48C68.8014 187.213 69.1641 186.835 69.4308 186.344C69.6974 185.843 69.8308 185.261 69.8308 184.6ZM75.2193 177.16V189H73.7633V177.16H75.2193ZM89.4224 181.112C89.4224 182.04 89.1024 182.813 88.4624 183.432C87.833 184.04 86.8677 184.344 85.5664 184.344H83.4224V189H81.9664V177.848H85.5664C86.825 177.848 87.7797 178.152 88.4304 178.76C89.0917 179.368 89.4224 180.152 89.4224 181.112ZM85.5664 183.144C86.377 183.144 86.9744 182.968 87.3584 182.616C87.7424 182.264 87.9344 181.763 87.9344 181.112C87.9344 179.736 87.145 179.048 85.5664 179.048H83.4224V183.144H85.5664ZM90.688 184.584C90.688 183.688 90.8693 182.904 91.232 182.232C91.5947 181.549 92.0907 181.021 92.72 180.648C93.36 180.275 94.0693 180.088 94.848 180.088C95.616 180.088 96.2827 180.253 96.848 180.584C97.4133 180.915 97.8347 181.331 98.112 181.832V180.232H99.584V189H98.112V187.368C97.824 187.88 97.392 188.307 96.816 188.648C96.2507 188.979 95.5893 189.144 94.832 189.144C94.0533 189.144 93.3493 188.952 92.72 188.568C92.0907 188.184 91.5947 187.645 91.232 186.952C90.8693 186.259 90.688 185.469 90.688 184.584ZM98.112 184.6C98.112 183.939 97.9787 183.363 97.712 182.872C97.4453 182.381 97.0827 182.008 96.624 181.752C96.176 181.485 95.68 181.352 95.136 181.352C94.592 181.352 94.096 181.48 93.648 181.736C93.2 181.992 92.8427 182.365 92.576 182.856C92.3093 183.347 92.176 183.923 92.176 184.584C92.176 185.256 92.3093 185.843 92.576 186.344C92.8427 186.835 93.2 187.213 93.648 187.48C94.096 187.736 94.592 187.864 95.136 187.864C95.68 187.864 96.176 187.736 96.624 187.48C97.0827 187.213 97.4453 186.835 97.712 186.344C97.9787 185.843 98.112 185.261 98.112 184.6ZM103.821 181.432V186.6C103.821 187.027 103.911 187.331 104.093 187.512C104.274 187.683 104.589 187.768 105.036 187.768H106.109V189H104.797C103.986 189 103.378 188.813 102.973 188.44C102.567 188.067 102.365 187.453 102.365 186.6V181.432H101.229V180.232H102.365V178.024H103.821V180.232H106.109V181.432H103.821ZM108.625 178.808C108.347 178.808 108.113 178.712 107.921 178.52C107.729 178.328 107.633 178.093 107.633 177.816C107.633 177.539 107.729 177.304 107.921 177.112C108.113 176.92 108.347 176.824 108.625 176.824C108.891 176.824 109.115 176.92 109.297 177.112C109.489 177.304 109.585 177.539 109.585 177.816C109.585 178.093 109.489 178.328 109.297 178.52C109.115 178.712 108.891 178.808 108.625 178.808ZM109.329 180.232V189H107.873V180.232H109.329ZM119.81 184.28C119.81 184.557 119.794 184.851 119.762 185.16H112.754C112.807 186.024 113.101 186.701 113.634 187.192C114.178 187.672 114.834 187.912 115.602 187.912C116.231 187.912 116.754 187.768 117.17 187.48C117.597 187.181 117.895 186.787 118.066 186.296H119.634C119.399 187.139 118.93 187.827 118.226 188.36C117.522 188.883 116.647 189.144 115.602 189.144C114.77 189.144 114.023 188.957 113.362 188.584C112.711 188.211 112.199 187.683 111.826 187C111.453 186.307 111.266 185.507 111.266 184.6C111.266 183.693 111.447 182.899 111.81 182.216C112.173 181.533 112.679 181.011 113.33 180.648C113.991 180.275 114.749 180.088 115.602 180.088C116.434 180.088 117.17 180.269 117.81 180.632C118.45 180.995 118.941 181.496 119.282 182.136C119.634 182.765 119.81 183.48 119.81 184.28ZM118.306 183.976C118.306 183.421 118.183 182.947 117.938 182.552C117.693 182.147 117.357 181.843 116.93 181.64C116.514 181.427 116.05 181.32 115.538 181.32C114.802 181.32 114.173 181.555 113.65 182.024C113.138 182.493 112.845 183.144 112.77 183.976H118.306ZM126.004 180.072C127.071 180.072 127.935 180.397 128.596 181.048C129.257 181.688 129.588 182.616 129.588 183.832V189H128.148V184.04C128.148 183.165 127.929 182.499 127.492 182.04C127.055 181.571 126.457 181.336 125.7 181.336C124.932 181.336 124.319 181.576 123.86 182.056C123.412 182.536 123.188 183.235 123.188 184.152V189H121.732V180.232H123.188V181.48C123.476 181.032 123.865 180.685 124.356 180.44C124.857 180.195 125.407 180.072 126.004 180.072ZM133.742 181.432V186.6C133.742 187.027 133.833 187.331 134.014 187.512C134.196 187.683 134.51 187.768 134.958 187.768H136.03V189H134.718C133.908 189 133.3 188.813 132.894 188.44C132.489 188.067 132.286 187.453 132.286 186.6V181.432H131.15V180.232H132.286V178.024H133.742V180.232H136.03V181.432H133.742Z" fill="#274760"/>
<path d="M45.12 234L45.16 208.48L45.6 206H49.64L49.6 234H45.12ZM39.08 214.2V210C39.6933 210.027 40.3867 209.853 41.16 209.48C41.96 209.08 42.7467 208.56 43.52 207.92C44.2933 207.28 44.9867 206.627 45.6 205.96L48.48 208.96C47.5467 209.947 46.5733 210.853 45.56 211.68C44.5467 212.507 43.4933 213.147 42.4 213.6C41.3333 214.053 40.2267 214.253 39.08 214.2ZM66.6378 234.48C64.4511 234.48 62.5045 233.867 60.7978 232.64C59.0911 231.387 57.7445 229.68 56.7578 227.52C55.7978 225.333 55.3178 222.827 55.3178 220C55.3178 217.173 55.7978 214.68 56.7578 212.52C57.7445 210.333 59.0778 208.627 60.7578 207.4C62.4645 206.147 64.4245 205.52 66.6378 205.52C68.8511 205.52 70.8111 206.147 72.5178 207.4C74.2245 208.627 75.5578 210.333 76.5178 212.52C77.5045 214.68 77.9978 217.173 77.9978 220C77.9978 222.827 77.5045 225.333 76.5178 227.52C75.5578 229.68 74.2245 231.387 72.5178 232.64C70.8378 233.867 68.8778 234.48 66.6378 234.48ZM66.6778 230.28C67.9845 230.28 69.1445 229.84 70.1578 228.96C71.1978 228.08 71.9978 226.867 72.5578 225.32C73.1445 223.773 73.4378 222 73.4378 220C73.4378 218 73.1445 216.227 72.5578 214.68C71.9978 213.107 71.1978 211.88 70.1578 211C69.1445 210.12 67.9711 209.68 66.6378 209.68C65.3045 209.68 64.1311 210.12 63.1178 211C62.1045 211.88 61.3045 213.093 60.7178 214.64C60.1578 216.187 59.8778 217.973 59.8778 220C59.8778 222 60.1578 223.773 60.7178 225.32C61.3045 226.867 62.1045 228.08 63.1178 228.96C64.1578 229.84 65.3445 230.28 66.6778 230.28ZM84.1791 234.56C83.4057 234.56 82.7391 234.293 82.1791 233.76C81.6457 233.2 81.3791 232.533 81.3791 231.76C81.3791 230.987 81.6457 230.32 82.1791 229.76C82.7391 229.2 83.4057 228.92 84.1791 228.92C84.9524 228.92 85.6191 229.2 86.1791 229.76C86.7391 230.32 87.0191 230.987 87.0191 231.76C87.0191 232.533 86.7391 233.2 86.1791 233.76C85.6191 234.293 84.9524 234.56 84.1791 234.56ZM100.516 234.48C99.2893 234.48 98.0359 234.293 96.7559 233.92C95.5026 233.52 94.3426 232.933 93.2759 232.16C92.2093 231.36 91.3959 230.36 90.8359 229.16L94.9559 227.64C95.6493 228.627 96.4626 229.347 97.3959 229.8C98.3293 230.227 99.2893 230.44 100.276 230.44C101.849 230.44 103.129 229.973 104.116 229.04C105.103 228.08 105.596 226.813 105.596 225.24C105.596 223.72 105.116 222.467 104.156 221.48C103.196 220.493 101.943 220 100.396 220C99.4893 220 98.6359 220.2 97.8359 220.6C97.0626 221 96.4626 221.48 96.0359 222.04L91.8359 221.12L93.3959 206H108.876V210.2H93.9559L93.3959 206.16H97.9959L96.0759 221.48L93.2359 221.12C93.5559 220.587 93.9693 220.053 94.4759 219.52C95.0093 218.96 95.6493 218.44 96.3959 217.96C97.1426 217.48 97.9693 217.093 98.8759 216.8C99.7826 216.507 100.769 216.373 101.836 216.4C103.436 216.4 104.876 216.773 106.156 217.52C107.436 218.267 108.449 219.293 109.196 220.6C109.943 221.88 110.316 223.36 110.316 225.04C110.316 226.907 109.889 228.547 109.036 229.96C108.209 231.373 107.063 232.48 105.596 233.28C104.129 234.08 102.436 234.48 100.516 234.48ZM118.641 232.52L114.121 230.44C114.121 229.613 114.334 228.76 114.761 227.88C115.188 226.973 115.788 226.067 116.561 225.16C117.361 224.253 118.294 223.4 119.361 222.6L124.241 219.08C124.854 218.653 125.414 218.16 125.921 217.6C126.454 217.04 126.881 216.453 127.201 215.84C127.521 215.2 127.681 214.573 127.681 213.96C127.681 213.187 127.481 212.48 127.081 211.84C126.708 211.2 126.161 210.693 125.441 210.32C124.748 209.947 123.894 209.76 122.881 209.76C121.974 209.76 121.161 209.947 120.441 210.32C119.748 210.667 119.174 211.133 118.721 211.72C118.268 212.307 117.948 212.947 117.761 213.64L113.001 212.76C113.268 211.48 113.828 210.293 114.681 209.2C115.561 208.08 116.681 207.187 118.041 206.52C119.428 205.853 121.001 205.52 122.761 205.52C124.734 205.52 126.441 205.88 127.881 206.6C129.348 207.32 130.468 208.32 131.241 209.6C132.041 210.853 132.441 212.293 132.441 213.92C132.441 215.573 131.988 217.067 131.081 218.4C130.201 219.707 128.961 220.96 127.361 222.16L122.881 225.48C122.134 226.013 121.428 226.627 120.761 227.32C120.121 227.987 119.601 228.747 119.201 229.6C118.828 230.453 118.641 231.427 118.641 232.52ZM114.121 234V230.44L117.561 229.88H132.801V234H114.121ZM146.493 234.48C145.266 234.48 144.013 234.293 142.733 233.92C141.479 233.52 140.319 232.933 139.253 232.16C138.186 231.36 137.373 230.36 136.813 229.16L140.933 227.64C141.626 228.627 142.439 229.347 143.373 229.8C144.306 230.227 145.266 230.44 146.253 230.44C147.826 230.44 149.106 229.973 150.093 229.04C151.079 228.08 151.573 226.813 151.573 225.24C151.573 223.72 151.093 222.467 150.133 221.48C149.173 220.493 147.919 220 146.373 220C145.466 220 144.613 220.2 143.813 220.6C143.039 221 142.439 221.48 142.013 222.04L137.813 221.12L139.373 206H154.853V210.2H139.933L139.373 206.16H143.973L142.053 221.48L139.213 221.12C139.533 220.587 139.946 220.053 140.453 219.52C140.986 218.96 141.626 218.44 142.373 217.96C143.119 217.48 143.946 217.093 144.853 216.8C145.759 216.507 146.746 216.373 147.813 216.4C149.413 216.4 150.853 216.773 152.133 217.52C153.413 218.267 154.426 219.293 155.173 220.6C155.919 221.88 156.293 223.36 156.293 225.04C156.293 226.907 155.866 228.547 155.012 229.96C154.186 231.373 153.039 232.48 151.573 233.28C150.106 234.08 148.413 234.48 146.493 234.48Z" fill="#274760"/>
<line x1="26.1" y1="27" x2="26.1" y2="157" stroke="white" stroke-width="0.2"/>
<line x1="180.1" y1="27" x2="180.1" y2="157" stroke="white" stroke-width="0.2"/>
<line x1="56.1" y1="27" x2="56.1" y2="157" stroke="white" stroke-width="0.2"/>
<line x1="210.1" y1="27" x2="210.1" y2="157" stroke="white" stroke-width="0.2"/>
<line x1="86.1" y1="27" x2="86.1" y2="157" stroke="white" stroke-width="0.2"/>
<line x1="240.1" y1="27" x2="240.1" y2="157" stroke="white" stroke-width="0.2"/>
<line x1="117.1" y1="27" x2="117.1" y2="157" stroke="white" stroke-width="0.2"/>
<line x1="271.1" y1="27" x2="271.1" y2="157" stroke="white" stroke-width="0.2"/>
<line x1="150.1" y1="27" x2="150.1" y2="157" stroke="white" stroke-width="0.2"/>
<line x1="301.1" y1="27" x2="301.1" y2="157" stroke="white" stroke-width="0.2"/>
<circle cx="107.5" cy="129.5" r="6.5" fill="#307BC4"/>
<path d="M22 133.416C26.9388 136.459 38.3249 139.162 44.3592 125.63C51.902 108.715 74.8 68.1726 109.551 133.416C114.49 138.249 126.253 139.645 133.796 106.567C135.322 97.6173 140.746 78.8586 150.229 75.4219C159.711 71.9852 178.424 86.8776 186.596 94.7534C193.241 101.108 208.201 105.117 214.882 70.3205C218.294 57.3433 230.021 39.8197 249.633 73.5424C269.244 107.265 282.049 60.5653 286 33" stroke="url(#paint1_linear_32_277)" stroke-width="4"/>
<defs>
<filter id="filter0_b_32_277" x="-43" y="-43" width="414" height="352" filterUnits="userSpaceOnUse" color-interpolation-filters="sRGB">
<feFlood flood-opacity="0" result="BackgroundImageFix"/>
<feGaussianBlur in="BackgroundImageFix" stdDeviation="21.5"/>
<feComposite in2="SourceAlpha" operator="in" result="effect1_backgroundBlur_32_277"/>
<feBlend mode="normal" in="SourceGraphic" in2="effect1_backgroundBlur_32_277" result="shape"/>
</filter>
<linearGradient id="paint0_linear_32_277" x1="151.615" y1="39.5049" x2="246.944" y2="222.88" gradientUnits="userSpaceOnUse">
<stop stop-color="white"/>
<stop offset="1" stop-color="white" stop-opacity="0"/>
</linearGradient>
<linearGradient id="paint1_linear_32_277" x1="276.769" y1="44.4955" x2="-48.3814" y2="150.969" gradientUnits="userSpaceOnUse">
<stop stop-color="#307BC4"/>
<stop offset="1" stop-color="#307BC4" stop-opacity="0"/>
</linearGradient>
</defs>
</svg>
