<svg width="361" height="101" viewBox="0 0 361 101" fill="none" xmlns="http://www.w3.org/2000/svg">
<g filter="url(#filter0_b_32_252)">
<rect width="361" height="101" rx="50" fill="white"/>
<rect x="0.5" y="0.5" width="360" height="100" rx="49.5" stroke="url(#paint0_linear_32_252)"/>
</g>
<path d="M108.288 40.112C107.243 40.112 106.283 39.8667 105.408 39.376C104.533 38.8853 103.84 38.208 103.328 37.344C102.816 36.4693 102.56 35.4827 102.56 34.384C102.56 33.296 102.816 32.32 103.328 31.456C103.84 30.5813 104.533 29.8987 105.408 29.408C106.283 28.9173 107.243 28.672 108.288 28.672C109.344 28.672 110.304 28.9173 111.168 29.408C112.043 29.8987 112.731 30.5813 113.232 31.456C113.744 32.32 114 33.296 114 34.384C114 35.4827 113.744 36.4693 113.232 37.344C112.731 38.208 112.043 38.8853 111.168 39.376C110.293 39.8667 109.333 40.112 108.288 40.112ZM108.288 38.112C108.96 38.112 109.552 37.9627 110.064 37.664C110.576 37.3547 110.976 36.9173 111.264 36.352C111.552 35.7867 111.696 35.1307 111.696 34.384C111.696 33.6373 111.552 32.9867 111.264 32.432C110.976 31.8667 110.576 31.4347 110.064 31.136C109.552 30.8373 108.96 30.688 108.288 30.688C107.616 30.688 107.019 30.8373 106.496 31.136C105.984 31.4347 105.584 31.8667 105.296 32.432C105.008 32.9867 104.864 33.6373 104.864 34.384C104.864 35.1307 105.008 35.7867 105.296 36.352C105.584 36.9173 105.984 37.3547 106.496 37.664C107.019 37.9627 107.616 38.112 108.288 38.112ZM117.907 32.416C118.195 32.0107 118.589 31.6747 119.091 31.408C119.603 31.1307 120.184 30.992 120.835 30.992C121.592 30.992 122.275 31.1787 122.883 31.552C123.501 31.9253 123.987 32.4587 124.339 33.152C124.701 33.8347 124.883 34.6293 124.883 35.536C124.883 36.4427 124.701 37.248 124.339 37.952C123.987 38.6453 123.501 39.184 122.883 39.568C122.275 39.952 121.592 40.144 120.835 40.144C120.184 40.144 119.608 40.0107 119.107 39.744C118.616 39.4773 118.216 39.1413 117.907 38.736V44.224H115.667V31.136H117.907V32.416ZM122.595 35.536C122.595 35.0027 122.483 34.544 122.259 34.16C122.045 33.7653 121.757 33.4667 121.395 33.264C121.043 33.0613 120.659 32.96 120.243 32.96C119.837 32.96 119.453 33.0667 119.091 33.28C118.739 33.4827 118.451 33.7813 118.227 34.176C118.013 34.5707 117.907 35.0347 117.907 35.568C117.907 36.1013 118.013 36.5653 118.227 36.96C118.451 37.3547 118.739 37.6587 119.091 37.872C119.453 38.0747 119.837 38.176 120.243 38.176C120.659 38.176 121.043 38.0693 121.395 37.856C121.757 37.6427 122.045 37.3387 122.259 36.944C122.483 36.5493 122.595 36.08 122.595 35.536ZM134.75 35.376C134.75 35.696 134.729 35.984 134.686 36.24H128.206C128.26 36.88 128.484 37.3813 128.878 37.744C129.273 38.1067 129.758 38.288 130.334 38.288C131.166 38.288 131.758 37.9307 132.11 37.216H134.526C134.27 38.0693 133.78 38.7733 133.054 39.328C132.329 39.872 131.438 40.144 130.382 40.144C129.529 40.144 128.761 39.9573 128.078 39.584C127.406 39.2 126.878 38.6613 126.494 37.968C126.121 37.2747 125.934 36.4747 125.934 35.568C125.934 34.6507 126.121 33.8453 126.494 33.152C126.868 32.4587 127.39 31.9253 128.062 31.552C128.734 31.1787 129.508 30.992 130.382 30.992C131.225 30.992 131.977 31.1733 132.638 31.536C133.31 31.8987 133.828 32.416 134.19 33.088C134.564 33.7493 134.75 34.512 134.75 35.376ZM132.43 34.736C132.42 34.16 132.212 33.7013 131.806 33.36C131.401 33.008 130.905 32.832 130.318 32.832C129.764 32.832 129.294 33.0027 128.91 33.344C128.537 33.6747 128.308 34.1387 128.222 34.736H132.43ZM141.297 31.008C142.353 31.008 143.207 31.344 143.857 32.016C144.508 32.6773 144.833 33.6053 144.833 34.8V40H142.593V35.104C142.593 34.4 142.417 33.8613 142.065 33.488C141.713 33.104 141.233 32.912 140.625 32.912C140.007 32.912 139.516 33.104 139.153 33.488C138.801 33.8613 138.625 34.4 138.625 35.104V40H136.385V31.136H138.625V32.24C138.924 31.856 139.303 31.5573 139.761 31.344C140.231 31.12 140.743 31.008 141.297 31.008ZM148.099 30.08C147.705 30.08 147.374 29.9573 147.107 29.712C146.851 29.456 146.723 29.1413 146.723 28.768C146.723 28.3947 146.851 28.0853 147.107 27.84C147.374 27.584 147.705 27.456 148.099 27.456C148.494 27.456 148.819 27.584 149.075 27.84C149.342 28.0853 149.475 28.3947 149.475 28.768C149.475 29.1413 149.342 29.456 149.075 29.712C148.819 29.9573 148.494 30.08 148.099 30.08ZM149.203 31.136V40H146.963V31.136H149.203ZM156.329 31.008C157.385 31.008 158.238 31.344 158.889 32.016C159.539 32.6773 159.865 33.6053 159.865 34.8V40H157.625V35.104C157.625 34.4 157.449 33.8613 157.097 33.488C156.745 33.104 156.265 32.912 155.657 32.912C155.038 32.912 154.547 33.104 154.185 33.488C153.833 33.8613 153.657 34.4 153.657 35.104V40H151.417V31.136H153.657V32.24C153.955 31.856 154.334 31.5573 154.793 31.344C155.262 31.12 155.774 31.008 156.329 31.008ZM165.467 30.992C166.128 30.992 166.709 31.1253 167.211 31.392C167.712 31.648 168.107 31.984 168.395 32.4V31.136H170.651V40.064C170.651 40.8853 170.485 41.616 170.155 42.256C169.824 42.9067 169.328 43.4187 168.667 43.792C168.005 44.176 167.205 44.368 166.267 44.368C165.008 44.368 163.973 44.0747 163.163 43.488C162.363 42.9013 161.909 42.1013 161.803 41.088H164.027C164.144 41.4933 164.395 41.8133 164.779 42.048C165.173 42.2933 165.648 42.416 166.203 42.416C166.853 42.416 167.381 42.2187 167.787 41.824C168.192 41.44 168.395 40.8533 168.395 40.064V38.688C168.107 39.104 167.707 39.4507 167.195 39.728C166.693 40.0053 166.117 40.144 165.467 40.144C164.72 40.144 164.037 39.952 163.419 39.568C162.8 39.184 162.309 38.6453 161.947 37.952C161.595 37.248 161.419 36.4427 161.419 35.536C161.419 34.64 161.595 33.8453 161.947 33.152C162.309 32.4587 162.795 31.9253 163.403 31.552C164.021 31.1787 164.709 30.992 165.467 30.992ZM168.395 35.568C168.395 35.024 168.288 34.56 168.075 34.176C167.861 33.7813 167.573 33.4827 167.211 33.28C166.848 33.0667 166.459 32.96 166.043 32.96C165.627 32.96 165.243 33.0613 164.891 33.264C164.539 33.4667 164.251 33.7653 164.027 34.16C163.813 34.544 163.707 35.0027 163.707 35.536C163.707 36.0693 163.813 36.5387 164.027 36.944C164.251 37.3387 164.539 37.6427 164.891 37.856C165.253 38.0693 165.637 38.176 166.043 38.176C166.459 38.176 166.848 38.0747 167.211 37.872C167.573 37.6587 167.861 37.36 168.075 36.976C168.288 36.5813 168.395 36.112 168.395 35.568ZM185.915 28.832V40H183.675V35.248H178.891V40H176.651V28.832H178.891V33.424H183.675V28.832H185.915ZM192.056 40.144C191.202 40.144 190.434 39.9573 189.752 39.584C189.069 39.2 188.53 38.6613 188.136 37.968C187.752 37.2747 187.56 36.4747 187.56 35.568C187.56 34.6613 187.757 33.8613 188.152 33.168C188.557 32.4747 189.106 31.9413 189.8 31.568C190.493 31.184 191.266 30.992 192.12 30.992C192.973 30.992 193.746 31.184 194.44 31.568C195.133 31.9413 195.677 32.4747 196.072 33.168C196.477 33.8613 196.68 34.6613 196.68 35.568C196.68 36.4747 196.472 37.2747 196.056 37.968C195.65 38.6613 195.096 39.2 194.392 39.584C193.698 39.9573 192.92 40.144 192.056 40.144ZM192.056 38.192C192.461 38.192 192.84 38.096 193.192 37.904C193.554 37.7013 193.842 37.4027 194.056 37.008C194.269 36.6133 194.376 36.1333 194.376 35.568C194.376 34.7253 194.152 34.08 193.704 33.632C193.266 33.1733 192.728 32.944 192.088 32.944C191.448 32.944 190.909 33.1733 190.472 33.632C190.045 34.08 189.832 34.7253 189.832 35.568C189.832 36.4107 190.04 37.0613 190.456 37.52C190.882 37.968 191.416 38.192 192.056 38.192ZM206.691 31.136V40H204.435V38.88C204.147 39.264 203.768 39.568 203.299 39.792C202.84 40.0053 202.339 40.112 201.795 40.112C201.101 40.112 200.488 39.968 199.955 39.68C199.421 39.3813 199 38.9493 198.691 38.384C198.392 37.808 198.243 37.1253 198.243 36.336V31.136H200.483V36.016C200.483 36.72 200.659 37.264 201.011 37.648C201.363 38.0213 201.843 38.208 202.451 38.208C203.069 38.208 203.555 38.0213 203.907 37.648C204.259 37.264 204.435 36.72 204.435 36.016V31.136H206.691ZM211.141 32.512C211.429 32.0427 211.802 31.6747 212.261 31.408C212.73 31.1413 213.264 31.008 213.861 31.008V33.36H213.269C212.565 33.36 212.032 33.5253 211.669 33.856C211.317 34.1867 211.141 34.7627 211.141 35.584V40H208.901V31.136H211.141V32.512ZM218.762 40.144C218.036 40.144 217.386 40.016 216.81 39.76C216.234 39.4933 215.775 39.136 215.434 38.688C215.103 38.24 214.922 37.744 214.89 37.2H217.146C217.188 37.5413 217.354 37.824 217.642 38.048C217.94 38.272 218.308 38.384 218.746 38.384C219.172 38.384 219.503 38.2987 219.738 38.128C219.983 37.9573 220.106 37.7387 220.106 37.472C220.106 37.184 219.956 36.9707 219.658 36.832C219.37 36.6827 218.906 36.5227 218.266 36.352C217.604 36.192 217.06 36.0267 216.634 35.856C216.218 35.6853 215.855 35.424 215.546 35.072C215.247 34.72 215.098 34.2453 215.098 33.648C215.098 33.1573 215.236 32.7093 215.514 32.304C215.802 31.8987 216.207 31.5787 216.73 31.344C217.263 31.1093 217.887 30.992 218.602 30.992C219.658 30.992 220.5 31.2587 221.13 31.792C221.759 32.3147 222.106 33.024 222.17 33.92H220.026C219.994 33.568 219.844 33.2907 219.578 33.088C219.322 32.8747 218.975 32.768 218.538 32.768C218.132 32.768 217.818 32.8427 217.594 32.992C217.38 33.1413 217.274 33.3493 217.274 33.616C217.274 33.9147 217.423 34.144 217.722 34.304C218.02 34.4533 218.484 34.608 219.114 34.768C219.754 34.928 220.282 35.0933 220.698 35.264C221.114 35.4347 221.471 35.7013 221.77 36.064C222.079 36.416 222.239 36.8853 222.25 37.472C222.25 37.984 222.106 38.4427 221.818 38.848C221.54 39.2533 221.135 39.5733 220.602 39.808C220.079 40.032 219.466 40.144 218.762 40.144Z" fill="#274760"/>
<path d="M114.544 57.928V69H113.088V60.744L109.408 69H108.384L104.688 60.728V69H103.232V57.928H104.8L108.896 67.08L112.992 57.928H114.544ZM120.837 69.144C120.016 69.144 119.269 68.9573 118.597 68.584C117.936 68.2107 117.413 67.6827 117.029 67C116.656 66.3067 116.469 65.5067 116.469 64.6C116.469 63.704 116.661 62.9147 117.045 62.232C117.44 61.5387 117.973 61.0107 118.645 60.648C119.317 60.2747 120.069 60.088 120.901 60.088C121.733 60.088 122.485 60.2747 123.157 60.648C123.829 61.0107 124.357 61.5333 124.741 62.216C125.136 62.8987 125.333 63.6933 125.333 64.6C125.333 65.5067 125.131 66.3067 124.725 67C124.331 67.6827 123.792 68.2107 123.109 68.584C122.427 68.9573 121.669 69.144 120.837 69.144ZM120.837 67.864C121.36 67.864 121.851 67.7413 122.309 67.496C122.768 67.2507 123.136 66.8827 123.413 66.392C123.701 65.9013 123.845 65.304 123.845 64.6C123.845 63.896 123.707 63.2987 123.429 62.808C123.152 62.3173 122.789 61.9547 122.341 61.72C121.893 61.4747 121.408 61.352 120.885 61.352C120.352 61.352 119.861 61.4747 119.413 61.72C118.976 61.9547 118.624 62.3173 118.357 62.808C118.091 63.2987 117.957 63.896 117.957 64.6C117.957 65.3147 118.085 65.9173 118.341 66.408C118.608 66.8987 118.96 67.2667 119.397 67.512C119.835 67.7467 120.315 67.864 120.837 67.864ZM131.52 60.072C132.586 60.072 133.45 60.3973 134.112 61.048C134.773 61.688 135.104 62.616 135.104 63.832V69H133.664V64.04C133.664 63.1653 133.445 62.4987 133.008 62.04C132.57 61.5707 131.973 61.336 131.216 61.336C130.448 61.336 129.834 61.576 129.376 62.056C128.928 62.536 128.704 63.2347 128.704 64.152V69H127.248V60.232H128.704V61.48C128.992 61.032 129.381 60.6853 129.872 60.44C130.373 60.1947 130.922 60.072 131.52 60.072ZM147.828 62.52V63.752H141.444V62.52H147.828ZM158.362 69.112C157.626 69.112 156.964 68.984 156.378 68.728C155.802 68.4613 155.348 68.0987 155.018 67.64C154.687 67.1707 154.516 66.632 154.506 66.024H156.058C156.111 66.5467 156.324 66.9893 156.698 67.352C157.082 67.704 157.636 67.88 158.362 67.88C159.055 67.88 159.599 67.7093 159.994 67.368C160.399 67.016 160.602 66.568 160.602 66.024C160.602 65.5973 160.484 65.2507 160.25 64.984C160.015 64.7173 159.722 64.5147 159.37 64.376C159.018 64.2373 158.543 64.088 157.946 63.928C157.21 63.736 156.618 63.544 156.17 63.352C155.732 63.16 155.354 62.8613 155.034 62.456C154.724 62.04 154.57 61.4853 154.57 60.792C154.57 60.184 154.724 59.6453 155.034 59.176C155.343 58.7067 155.775 58.344 156.33 58.088C156.895 57.832 157.54 57.704 158.266 57.704C159.311 57.704 160.164 57.9653 160.826 58.488C161.498 59.0107 161.876 59.704 161.962 60.568H160.362C160.308 60.1413 160.084 59.768 159.69 59.448C159.295 59.1173 158.772 58.952 158.122 58.952C157.514 58.952 157.018 59.112 156.634 59.432C156.25 59.7413 156.058 60.1787 156.058 60.744C156.058 61.1493 156.17 61.48 156.394 61.736C156.628 61.992 156.911 62.1893 157.242 62.328C157.583 62.456 158.058 62.6053 158.666 62.776C159.402 62.9787 159.994 63.1813 160.442 63.384C160.89 63.576 161.274 63.88 161.594 64.296C161.914 64.7013 162.074 65.256 162.074 65.96C162.074 66.504 161.93 67.016 161.642 67.496C161.354 67.976 160.927 68.3653 160.362 68.664C159.796 68.9627 159.13 69.112 158.362 69.112ZM163.672 64.584C163.672 63.688 163.854 62.904 164.216 62.232C164.579 61.5493 165.075 61.0213 165.704 60.648C166.344 60.2747 167.054 60.088 167.832 60.088C168.6 60.088 169.267 60.2533 169.832 60.584C170.398 60.9147 170.819 61.3307 171.096 61.832V60.232H172.568V69H171.096V67.368C170.808 67.88 170.376 68.3067 169.8 68.648C169.235 68.9787 168.574 69.144 167.816 69.144C167.038 69.144 166.334 68.952 165.704 68.568C165.075 68.184 164.579 67.6453 164.216 66.952C163.854 66.2587 163.672 65.4693 163.672 64.584ZM171.096 64.6C171.096 63.9387 170.963 63.3627 170.696 62.872C170.43 62.3813 170.067 62.008 169.608 61.752C169.16 61.4853 168.664 61.352 168.12 61.352C167.576 61.352 167.08 61.48 166.632 61.736C166.184 61.992 165.827 62.3653 165.56 62.856C165.294 63.3467 165.16 63.9227 165.16 64.584C165.16 65.256 165.294 65.8427 165.56 66.344C165.827 66.8347 166.184 67.2133 166.632 67.48C167.08 67.736 167.576 67.864 168.12 67.864C168.664 67.864 169.16 67.736 169.608 67.48C170.067 67.2133 170.43 66.8347 170.696 66.344C170.963 65.8427 171.096 65.2613 171.096 64.6ZM176.805 61.432V66.6C176.805 67.0267 176.896 67.3307 177.077 67.512C177.258 67.6827 177.573 67.768 178.021 67.768H179.093V69H177.781C176.97 69 176.362 68.8133 175.957 68.44C175.552 68.0667 175.349 67.4533 175.349 66.6V61.432H174.213V60.232H175.349V58.024H176.805V60.232H179.093V61.432H176.805ZM181.321 69.096C181.044 69.096 180.809 69 180.617 68.808C180.425 68.616 180.329 68.3813 180.329 68.104C180.329 67.8267 180.425 67.592 180.617 67.4C180.809 67.208 181.044 67.112 181.321 67.112C181.588 67.112 181.812 67.208 181.993 67.4C182.185 67.592 182.281 67.8267 182.281 68.104C182.281 68.3813 182.185 68.616 181.993 68.808C181.812 69 181.588 69.096 181.321 69.096ZM181.321 62.248C181.044 62.248 180.809 62.152 180.617 61.96C180.425 61.768 180.329 61.5333 180.329 61.256C180.329 60.9787 180.425 60.744 180.617 60.552C180.809 60.36 181.044 60.264 181.321 60.264C181.588 60.264 181.812 60.36 181.993 60.552C182.185 60.744 182.281 60.9787 182.281 61.256C182.281 61.5333 182.185 61.768 181.993 61.96C181.812 62.152 181.588 62.248 181.321 62.248ZM190.161 65.896C190.268 66.504 190.513 66.9733 190.897 67.304C191.292 67.6347 191.82 67.8 192.481 67.8C193.366 67.8 194.017 67.4533 194.433 66.76C194.86 66.0667 195.062 64.8987 195.041 63.256C194.817 63.736 194.444 64.1147 193.921 64.392C193.398 64.6587 192.817 64.792 192.177 64.792C191.462 64.792 190.822 64.648 190.257 64.36C189.702 64.0613 189.265 63.6293 188.945 63.064C188.625 62.4987 188.465 61.816 188.465 61.016C188.465 59.8747 188.796 58.9573 189.457 58.264C190.118 57.56 191.057 57.208 192.273 57.208C193.766 57.208 194.812 57.6933 195.409 58.664C196.017 59.6347 196.321 61.08 196.321 63C196.321 64.344 196.198 65.4533 195.953 66.328C195.718 67.2027 195.313 67.8693 194.737 68.328C194.172 68.7867 193.393 69.016 192.401 69.016C191.313 69.016 190.465 68.7227 189.857 68.136C189.249 67.5493 188.902 66.8027 188.817 65.896H190.161ZM192.417 63.56C193.132 63.56 193.718 63.3413 194.177 62.904C194.636 62.456 194.865 61.8533 194.865 61.096C194.865 60.296 194.641 59.6507 194.193 59.16C193.745 58.6693 193.116 58.424 192.305 58.424C191.558 58.424 190.961 58.6587 190.513 59.128C190.076 59.5973 189.857 60.216 189.857 60.984C189.857 61.7627 190.076 62.3867 190.513 62.856C190.95 63.3253 191.585 63.56 192.417 63.56ZM199.071 69.096C198.794 69.096 198.559 69 198.367 68.808C198.175 68.616 198.079 68.3813 198.079 68.104C198.079 67.8267 198.175 67.592 198.367 67.4C198.559 67.208 198.794 67.112 199.071 67.112C199.338 67.112 199.562 67.208 199.743 67.4C199.935 67.592 200.031 67.8267 200.031 68.104C200.031 68.3813 199.935 68.616 199.743 68.808C199.562 69 199.338 69.096 199.071 69.096ZM201.726 63.096C201.726 61.2613 202.025 59.832 202.622 58.808C203.22 57.7733 204.265 57.256 205.758 57.256C207.241 57.256 208.281 57.7733 208.878 58.808C209.476 59.832 209.774 61.2613 209.774 63.096C209.774 64.9627 209.476 66.4133 208.878 67.448C208.281 68.4827 207.241 69 205.758 69C204.265 69 203.22 68.4827 202.622 67.448C202.025 66.4133 201.726 64.9627 201.726 63.096ZM208.334 63.096C208.334 62.168 208.27 61.384 208.142 60.744C208.025 60.0933 207.774 59.5707 207.39 59.176C207.017 58.7813 206.473 58.584 205.758 58.584C205.033 58.584 204.478 58.7813 204.094 59.176C203.721 59.5707 203.47 60.0933 203.342 60.744C203.225 61.384 203.166 62.168 203.166 63.096C203.166 64.056 203.225 64.8613 203.342 65.512C203.47 66.1627 203.721 66.6853 204.094 67.08C204.478 67.4747 205.033 67.672 205.758 67.672C206.473 67.672 207.017 67.4747 207.39 67.08C207.774 66.6853 208.025 66.1627 208.142 65.512C208.27 64.8613 208.334 64.056 208.334 63.096ZM211.773 63.096C211.773 61.2613 212.072 59.832 212.669 58.808C213.267 57.7733 214.312 57.256 215.805 57.256C217.288 57.256 218.328 57.7733 218.925 58.808C219.523 59.832 219.821 61.2613 219.821 63.096C219.821 64.9627 219.523 66.4133 218.925 67.448C218.328 68.4827 217.288 69 215.805 69C214.312 69 213.267 68.4827 212.669 67.448C212.072 66.4133 211.773 64.9627 211.773 63.096ZM218.381 63.096C218.381 62.168 218.317 61.384 218.189 60.744C218.072 60.0933 217.821 59.5707 217.437 59.176C217.064 58.7813 216.52 58.584 215.805 58.584C215.08 58.584 214.525 58.7813 214.141 59.176C213.768 59.5707 213.517 60.0933 213.389 60.744C213.272 61.384 213.213 62.168 213.213 63.096C213.213 64.056 213.272 64.8613 213.389 65.512C213.517 66.1627 213.768 66.6853 214.141 67.08C214.525 67.4747 215.08 67.672 215.805 67.672C216.52 67.672 217.064 67.4747 217.437 67.08C217.821 66.6853 218.072 66.1627 218.189 65.512C218.317 64.8613 218.381 64.056 218.381 63.096ZM232.918 66.52H228.054L227.158 69H225.622L229.654 57.912H231.334L235.35 69H233.814L232.918 66.52ZM232.502 65.336L230.486 59.704L228.47 65.336H232.502ZM248.419 57.928V69H246.963V60.744L243.283 69H242.259L238.563 60.728V69H237.107V57.928H238.675L242.771 67.08L246.867 57.928H248.419ZM256.968 62.52V63.752H250.584V62.52H256.968ZM259.461 63.096C259.461 61.2613 259.759 59.832 260.357 58.808C260.954 57.7733 261.999 57.256 263.493 57.256C264.975 57.256 266.015 57.7733 266.613 58.808C267.21 59.832 267.509 61.2613 267.509 63.096C267.509 64.9627 267.21 66.4133 266.613 67.448C266.015 68.4827 264.975 69 263.493 69C261.999 69 260.954 68.4827 260.357 67.448C259.759 66.4133 259.461 64.9627 259.461 63.096ZM266.069 63.096C266.069 62.168 266.005 61.384 265.877 60.744C265.759 60.0933 265.509 59.5707 265.125 59.176C264.751 58.7813 264.207 58.584 263.493 58.584C262.767 58.584 262.213 58.7813 261.829 59.176C261.455 59.5707 261.205 60.0933 261.077 60.744C260.959 61.384 260.901 62.168 260.901 63.096C260.901 64.056 260.959 64.8613 261.077 65.512C261.205 66.1627 261.455 66.6853 261.829 67.08C262.213 67.4747 262.767 67.672 263.493 67.672C264.207 67.672 264.751 67.4747 265.125 67.08C265.509 66.6853 265.759 66.1627 265.877 65.512C266.005 64.8613 266.069 64.056 266.069 63.096ZM276.628 58.568L272.18 69H270.708L275.22 58.712H269.044V57.464H276.628V58.568ZM278.946 69.096C278.669 69.096 278.434 69 278.242 68.808C278.05 68.616 277.954 68.3813 277.954 68.104C277.954 67.8267 278.05 67.592 278.242 67.4C278.434 67.208 278.669 67.112 278.946 67.112C279.213 67.112 279.437 67.208 279.618 67.4C279.81 67.592 279.906 67.8267 279.906 68.104C279.906 68.3813 279.81 68.616 279.618 68.808C279.437 69 279.213 69.096 278.946 69.096ZM281.601 63.096C281.601 61.2613 281.9 59.832 282.497 58.808C283.095 57.7733 284.14 57.256 285.633 57.256C287.116 57.256 288.156 57.7733 288.753 58.808C289.351 59.832 289.649 61.2613 289.649 63.096C289.649 64.9627 289.351 66.4133 288.753 67.448C288.156 68.4827 287.116 69 285.633 69C284.14 69 283.095 68.4827 282.497 67.448C281.9 66.4133 281.601 64.9627 281.601 63.096ZM288.209 63.096C288.209 62.168 288.145 61.384 288.017 60.744C287.9 60.0933 287.649 59.5707 287.265 59.176C286.892 58.7813 286.348 58.584 285.633 58.584C284.908 58.584 284.353 58.7813 283.969 59.176C283.596 59.5707 283.345 60.0933 283.217 60.744C283.1 61.384 283.041 62.168 283.041 63.096C283.041 64.056 283.1 64.8613 283.217 65.512C283.345 66.1627 283.596 66.6853 283.969 67.08C284.353 67.4747 284.908 67.672 285.633 67.672C286.348 67.672 286.892 67.4747 287.265 67.08C287.649 66.6853 287.9 66.1627 288.017 65.512C288.145 64.8613 288.209 64.056 288.209 63.096ZM291.648 63.096C291.648 61.2613 291.947 59.832 292.544 58.808C293.142 57.7733 294.187 57.256 295.68 57.256C297.163 57.256 298.203 57.7733 298.8 58.808C299.398 59.832 299.696 61.2613 299.696 63.096C299.696 64.9627 299.398 66.4133 298.8 67.448C298.203 68.4827 297.163 69 295.68 69C294.187 69 293.142 68.4827 292.544 67.448C291.947 66.4133 291.648 64.9627 291.648 63.096ZM298.256 63.096C298.256 62.168 298.192 61.384 298.064 60.744C297.947 60.0933 297.696 59.5707 297.312 59.176C296.939 58.7813 296.395 58.584 295.68 58.584C294.955 58.584 294.4 58.7813 294.016 59.176C293.643 59.5707 293.392 60.0933 293.264 60.744C293.147 61.384 293.088 62.168 293.088 63.096C293.088 64.056 293.147 64.8613 293.264 65.512C293.392 66.1627 293.643 66.6853 294.016 67.08C294.4 67.4747 294.955 67.672 295.68 67.672C296.395 67.672 296.939 67.4747 297.312 67.08C297.696 66.6853 297.947 66.1627 298.064 65.512C298.192 64.8613 298.256 64.056 298.256 63.096ZM313.657 61.112C313.657 62.04 313.337 62.8133 312.697 63.432C312.067 64.04 311.102 64.344 309.801 64.344H307.657V69H306.201V57.848H309.801C311.059 57.848 312.014 58.152 312.665 58.76C313.326 59.368 313.657 60.152 313.657 61.112ZM309.801 63.144C310.611 63.144 311.209 62.968 311.593 62.616C311.977 62.264 312.169 61.7627 312.169 61.112C312.169 59.736 311.379 59.048 309.801 59.048H307.657V63.144H309.801ZM326.778 57.928V69H325.322V60.744L321.642 69H320.618L316.922 60.728V69H315.466V57.928H317.034L321.13 67.08L325.226 57.928H326.778Z" fill="#274760"/>
<path d="M62.5508 54.2381L55.8583 49.2188V38.9942C55.8583 37.9661 55.0273 37.1351 53.9992 37.1351C52.9711 37.1351 52.1401 37.9661 52.1401 38.9942V50.1484C52.1401 50.7339 52.4153 51.2861 52.8838 51.6356L60.3198 57.2127C60.6544 57.4637 61.0449 57.5845 61.4334 57.5845C62.0004 57.5845 62.5581 57.3298 62.9225 56.839C63.5399 56.0191 63.3725 54.8535 62.5508 54.2381Z" fill="#307BC4"/>
<path d="M54 26C40.7656 26 30 36.7656 30 50C30 63.2344 40.7656 74 54 74C67.2344 74 78 63.2344 78 50C78 36.7656 67.2344 26 54 26ZM54 70.282C42.818 70.282 33.718 61.182 33.718 50C33.718 38.818 42.818 29.718 54 29.718C65.1839 29.718 74.282 38.818 74.282 50C74.282 61.182 65.182 70.282 54 70.282Z" fill="#307BC4"/>
<defs>
<filter id="filter0_b_32_252" x="-43" y="-43" width="447" height="187" filterUnits="userSpaceOnUse" color-interpolation-filters="sRGB">
<feFlood flood-opacity="0" result="BackgroundImageFix"/>
<feGaussianBlur in="BackgroundImageFix" stdDeviation="21.5"/>
<feComposite in2="SourceAlpha" operator="in" result="effect1_backgroundBlur_32_252"/>
<feBlend mode="normal" in="SourceGraphic" in2="effect1_backgroundBlur_32_252" result="shape"/>
</filter>
<linearGradient id="paint0_linear_32_252" x1="166.868" y1="15" x2="182.236" y2="100.689" gradientUnits="userSpaceOnUse">
<stop stop-color="white"/>
<stop offset="1" stop-color="white" stop-opacity="0"/>
</linearGradient>
</defs>
</svg>
